<?xml version="1.0" encoding="UTF-8"?>
<svg xmlns="http://www.w3.org/2000/svg" xmlns:xlink="http://www.w3.org/1999/xlink" width="128px" height="36px" viewBox="0 0 128 36" version="1.1">
<g id="surface1">
<path style=" stroke:none;fill-rule:nonzero;fill:rgb(100%,86.666667%,0%);fill-opacity:1;" d="M 0 5.761719 C 0 2.578125 2.574219 0 5.75 0 L 122.175781 0 C 125.351562 0 127.925781 2.578125 127.925781 5.761719 L 127.925781 30.238281 C 127.925781 33.421875 125.351562 36 122.175781 36 L 5.75 36 C 2.574219 36 0 33.421875 0 30.238281 Z M 0 5.761719 "/>
<path style=" stroke:none;fill-rule:nonzero;fill:rgb(5.098039%,4.705882%,13.333334%);fill-opacity:1;" d="M 25.722656 11.839844 L 25.707031 11.832031 L 25.671875 11.820312 C 25.683594 11.832031 25.703125 11.839844 25.722656 11.839844 Z M 25.722656 11.839844 "/>
<path style=" stroke:none;fill-rule:nonzero;fill:rgb(5.098039%,4.705882%,13.333334%);fill-opacity:1;" d="M 25.953125 13.484375 L 25.9375 13.492188 Z M 25.953125 13.484375 "/>
<path style=" stroke:none;fill-rule:nonzero;fill:rgb(5.098039%,4.705882%,13.333334%);fill-opacity:1;" d="M 25.730469 11.835938 C 25.726562 11.835938 25.726562 11.835938 25.722656 11.835938 C 25.722656 11.835938 25.722656 11.839844 25.722656 11.839844 C 25.726562 11.839844 25.726562 11.839844 25.730469 11.835938 Z M 25.730469 11.835938 "/>
<path style=" stroke:none;fill-rule:nonzero;fill:rgb(5.098039%,4.705882%,13.333334%);fill-opacity:1;" d="M 25.941406 13.484375 L 25.976562 13.460938 L 25.984375 13.453125 C 25.96875 13.460938 25.953125 13.46875 25.941406 13.484375 Z M 25.941406 13.484375 "/>
<path style=" stroke:none;fill-rule:nonzero;fill:rgb(5.098039%,4.705882%,13.333334%);fill-opacity:1;" d="M 25.769531 11.875 L 25.742188 11.851562 L 25.722656 11.839844 C 25.734375 11.859375 25.75 11.871094 25.769531 11.875 Z M 25.769531 11.875 "/>
<path style=" stroke:none;fill-rule:nonzero;fill:rgb(5.098039%,4.705882%,13.333334%);fill-opacity:1;" d="M 19.230469 27.847656 C 19.210938 27.855469 19.191406 27.871094 19.175781 27.890625 L 19.195312 27.878906 C 19.207031 27.867188 19.222656 27.855469 19.230469 27.847656 Z M 19.230469 27.847656 "/>
<path style=" stroke:none;fill-rule:nonzero;fill:rgb(5.098039%,4.705882%,13.333334%);fill-opacity:1;" d="M 23.027344 27.097656 C 23.027344 27.074219 23.015625 27.082031 23.019531 27.164062 C 23.019531 27.15625 23.019531 27.148438 23.023438 27.144531 C 23.023438 27.128906 23.023438 27.113281 23.027344 27.097656 Z M 23.027344 27.097656 "/>
<path style=" stroke:none;fill-rule:nonzero;fill:rgb(5.098039%,4.705882%,13.333334%);fill-opacity:1;" d="M 22.636719 27.847656 C 22.613281 27.855469 22.597656 27.871094 22.582031 27.890625 L 22.597656 27.878906 C 22.609375 27.867188 22.625 27.855469 22.636719 27.847656 Z M 22.636719 27.847656 "/>
<path style=" stroke:none;fill-rule:nonzero;fill:rgb(5.098039%,4.705882%,13.333334%);fill-opacity:1;" d="M 16.554688 28.027344 C 16.539062 28.011719 16.519531 28.003906 16.5 28 C 16.515625 28.007812 16.53125 28.015625 16.542969 28.023438 Z M 16.554688 28.027344 "/>
<path style=" stroke:none;fill-rule:nonzero;fill:rgb(5.098039%,4.705882%,13.333334%);fill-opacity:1;" d="M 15.953125 27.449219 C 15.953125 27.425781 15.945312 27.402344 15.933594 27.378906 C 15.941406 27.402344 15.949219 27.425781 15.953125 27.449219 Z M 15.953125 27.449219 "/>
<path style=" stroke:none;fill-rule:nonzero;fill:rgb(100%,100%,100%);fill-opacity:1;" d="M 19.996094 17.125 C 19.167969 17.476562 18.230469 17.878906 17.015625 17.878906 C 16.507812 17.878906 16.003906 17.808594 15.511719 17.671875 L 16.355469 26.316406 C 16.382812 26.675781 16.546875 27.011719 16.8125 27.257812 C 17.078125 27.503906 17.429688 27.640625 17.789062 27.640625 C 17.789062 27.640625 18.980469 27.703125 19.378906 27.703125 C 19.808594 27.703125 21.089844 27.640625 21.089844 27.640625 C 21.453125 27.640625 21.800781 27.503906 22.066406 27.257812 C 22.332031 27.011719 22.496094 26.675781 22.527344 26.316406 L 23.425781 16.761719 C 23.023438 16.625 22.617188 16.535156 22.160156 16.535156 C 21.371094 16.535156 20.730469 16.808594 19.996094 17.125 Z M 19.996094 17.125 "/>
<path style=" stroke:none;fill-rule:nonzero;fill:rgb(5.098039%,4.705882%,13.333334%);fill-opacity:1;" d="M 12.914062 13.4375 L 12.929688 13.449219 L 12.9375 13.453125 C 12.929688 13.449219 12.921875 13.441406 12.914062 13.4375 Z M 12.914062 13.4375 "/>
<path style=" stroke:none;fill-rule:nonzero;fill:rgb(5.098039%,4.705882%,13.333334%);fill-opacity:1;" d="M 27.3125 12.636719 L 27.1875 12 C 27.074219 11.425781 26.816406 10.882812 26.230469 10.675781 C 26.039062 10.609375 25.828125 10.582031 25.683594 10.441406 C 25.539062 10.304688 25.496094 10.09375 25.460938 9.894531 C 25.398438 9.53125 25.339844 9.167969 25.277344 8.804688 C 25.222656 8.496094 25.179688 8.144531 25.039062 7.859375 C 24.851562 7.476562 24.464844 7.25 24.082031 7.101562 C 23.886719 7.027344 23.6875 6.96875 23.484375 6.917969 C 22.527344 6.664062 21.519531 6.570312 20.535156 6.519531 C 19.355469 6.453125 18.167969 6.472656 16.992188 6.578125 C 16.113281 6.65625 15.1875 6.753906 14.355469 7.058594 C 14.050781 7.167969 13.738281 7.300781 13.503906 7.539062 C 13.21875 7.828125 13.128906 8.277344 13.335938 8.636719 C 13.484375 8.894531 13.734375 9.074219 13.996094 9.195312 C 14.34375 9.351562 14.703125 9.46875 15.074219 9.546875 C 16.105469 9.773438 17.171875 9.863281 18.222656 9.902344 C 19.390625 9.949219 20.558594 9.910156 21.71875 9.789062 C 22.007812 9.757812 22.292969 9.71875 22.578125 9.675781 C 22.917969 9.621094 23.132812 9.179688 23.035156 8.875 C 22.914062 8.503906 22.59375 8.363281 22.234375 8.417969 C 22.179688 8.425781 22.128906 8.433594 22.074219 8.441406 L 22.035156 8.449219 C 21.914062 8.464844 21.792969 8.476562 21.667969 8.492188 C 21.417969 8.519531 21.164062 8.542969 20.910156 8.558594 C 20.339844 8.597656 19.769531 8.617188 19.203125 8.617188 C 18.640625 8.617188 18.082031 8.601562 17.523438 8.566406 C 17.265625 8.546875 17.011719 8.527344 16.757812 8.5 C 16.644531 8.488281 16.527344 8.476562 16.414062 8.460938 L 16.304688 8.449219 L 16.28125 8.445312 L 16.167969 8.429688 C 15.933594 8.394531 15.703125 8.351562 15.472656 8.304688 C 15.449219 8.296875 15.429688 8.285156 15.414062 8.265625 C 15.398438 8.25 15.390625 8.226562 15.390625 8.203125 C 15.390625 8.179688 15.398438 8.15625 15.414062 8.136719 C 15.429688 8.117188 15.449219 8.105469 15.472656 8.101562 L 15.476562 8.101562 C 15.675781 8.058594 15.875 8.019531 16.078125 7.988281 C 16.144531 7.980469 16.210938 7.96875 16.28125 7.957031 C 16.40625 7.949219 16.535156 7.925781 16.660156 7.914062 C 17.75 7.800781 18.847656 7.761719 19.941406 7.796875 C 20.472656 7.8125 21.003906 7.84375 21.535156 7.898438 C 21.648438 7.910156 21.761719 7.921875 21.875 7.9375 C 21.917969 7.941406 21.960938 7.945312 22.003906 7.953125 L 22.09375 7.964844 C 22.347656 8.003906 22.605469 8.050781 22.859375 8.105469 C 23.234375 8.1875 23.714844 8.210938 23.882812 8.625 C 23.9375 8.757812 23.960938 8.902344 23.988281 9.039062 L 24.027344 9.214844 C 24.027344 9.21875 24.027344 9.21875 24.027344 9.222656 C 24.117188 9.636719 24.207031 10.050781 24.292969 10.464844 C 24.300781 10.492188 24.300781 10.523438 24.296875 10.554688 C 24.289062 10.585938 24.277344 10.617188 24.257812 10.640625 C 24.242188 10.667969 24.21875 10.6875 24.191406 10.703125 C 24.164062 10.71875 24.136719 10.730469 24.105469 10.734375 L 24.101562 10.734375 L 23.992188 10.75 C 23.824219 10.773438 23.65625 10.792969 23.484375 10.8125 C 23.148438 10.851562 22.816406 10.882812 22.480469 10.910156 C 21.8125 10.96875 21.144531 11.003906 20.472656 11.019531 C 20.132812 11.03125 19.789062 11.035156 19.449219 11.035156 C 18.089844 11.03125 16.734375 10.953125 15.386719 10.796875 C 15.238281 10.777344 15.09375 10.761719 14.949219 10.742188 C 15.0625 10.757812 14.867188 10.730469 14.824219 10.726562 C 14.734375 10.710938 14.640625 10.699219 14.546875 10.683594 C 14.234375 10.636719 13.925781 10.578125 13.613281 10.53125 C 13.238281 10.46875 12.878906 10.5 12.539062 10.683594 C 12.261719 10.835938 12.035156 11.070312 11.890625 11.355469 C 11.746094 11.660156 11.703125 11.992188 11.636719 12.316406 C 11.570312 12.644531 11.46875 12.996094 11.507812 13.332031 C 11.589844 14.054688 12.09375 14.640625 12.820312 14.773438 C 13.503906 14.898438 14.191406 14.996094 14.878906 15.082031 C 17.582031 15.414062 20.316406 15.453125 23.027344 15.199219 C 23.25 15.179688 23.46875 15.15625 23.6875 15.132812 C 23.757812 15.125 23.828125 15.132812 23.894531 15.15625 C 23.957031 15.179688 24.019531 15.21875 24.066406 15.265625 C 24.117188 15.316406 24.152344 15.375 24.175781 15.4375 C 24.199219 15.503906 24.207031 15.574219 24.203125 15.644531 L 24.132812 16.3125 C 23.996094 17.664062 23.855469 19.015625 23.71875 20.367188 C 23.574219 21.785156 23.429688 23.203125 23.28125 24.625 C 23.242188 25.023438 23.199219 25.421875 23.15625 25.824219 C 23.117188 26.214844 23.113281 26.621094 23.039062 27.011719 C 22.921875 27.621094 22.507812 27.996094 21.90625 28.132812 C 21.351562 28.261719 20.789062 28.324219 20.222656 28.332031 C 19.59375 28.335938 18.96875 28.308594 18.339844 28.308594 C 17.667969 28.3125 16.847656 28.253906 16.332031 27.753906 C 15.875 27.3125 15.8125 26.625 15.753906 26.03125 C 15.667969 25.246094 15.585938 24.457031 15.507812 23.671875 L 15.050781 19.300781 L 14.757812 16.46875 C 14.753906 16.421875 14.746094 16.375 14.742188 16.328125 C 14.707031 15.992188 14.46875 15.660156 14.09375 15.679688 C 13.773438 15.691406 13.40625 15.964844 13.445312 16.328125 L 13.660156 18.425781 L 14.113281 22.765625 C 14.242188 24 14.371094 25.230469 14.496094 26.464844 C 14.523438 26.703125 14.546875 26.9375 14.570312 27.175781 C 14.714844 28.464844 15.695312 29.160156 16.914062 29.355469 C 17.625 29.472656 18.355469 29.496094 19.078125 29.507812 C 20.003906 29.519531 20.9375 29.558594 21.847656 29.390625 C 23.199219 29.140625 24.210938 28.238281 24.355469 26.839844 C 24.394531 26.433594 24.4375 26.03125 24.480469 25.625 C 24.617188 24.289062 24.753906 22.949219 24.890625 21.613281 L 25.335938 17.242188 L 25.542969 15.238281 C 25.550781 15.140625 25.59375 15.046875 25.660156 14.972656 C 25.730469 14.898438 25.816406 14.851562 25.914062 14.832031 C 26.300781 14.753906 26.671875 14.625 26.945312 14.332031 C 27.382812 13.863281 27.46875 13.253906 27.3125 12.636719 Z M 12.800781 13.070312 C 12.808594 13.066406 12.796875 13.117188 12.792969 13.140625 C 12.789062 13.105469 12.792969 13.074219 12.800781 13.070312 Z M 12.839844 13.359375 C 12.839844 13.359375 12.851562 13.371094 12.859375 13.386719 C 12.847656 13.371094 12.835938 13.363281 12.839844 13.359375 Z M 12.875 13.410156 C 12.890625 13.429688 12.894531 13.445312 12.875 13.410156 Z M 12.949219 13.46875 L 12.953125 13.46875 C 12.953125 13.472656 12.953125 13.472656 12.957031 13.476562 C 12.953125 13.472656 12.953125 13.472656 12.949219 13.46875 Z M 25.898438 13.378906 C 25.757812 13.511719 25.550781 13.574219 25.34375 13.601562 C 23.03125 13.949219 20.683594 14.121094 18.34375 14.042969 C 16.667969 13.988281 15.011719 13.800781 13.351562 13.566406 C 13.191406 13.542969 13.015625 13.515625 12.902344 13.394531 C 12.691406 13.167969 12.796875 12.710938 12.851562 12.4375 C 12.902344 12.1875 12.996094 11.855469 13.292969 11.820312 C 13.757812 11.765625 14.296875 11.960938 14.757812 12.03125 C 15.308594 12.113281 15.863281 12.183594 16.421875 12.234375 C 18.796875 12.449219 21.214844 12.417969 23.582031 12.097656 C 24.011719 12.039062 24.441406 11.972656 24.871094 11.894531 C 25.25 11.828125 25.675781 11.699219 25.90625 12.09375 C 26.0625 12.363281 26.082031 12.726562 26.058594 13.03125 C 26.050781 13.164062 25.992188 13.289062 25.898438 13.378906 Z M 25.898438 13.378906 "/>
<path style=" stroke:none;fill-rule:evenodd;fill:rgb(5.098039%,4.705882%,13.725491%);fill-opacity:1;" d="M 39.933594 19.820312 C 39.800781 20.078125 39.613281 20.304688 39.378906 20.496094 C 39.140625 20.6875 38.867188 20.84375 38.550781 20.960938 C 38.234375 21.082031 37.917969 21.164062 37.597656 21.203125 C 37.28125 21.246094 36.96875 21.242188 36.667969 21.191406 C 36.371094 21.144531 36.113281 21.042969 35.902344 20.894531 L 36.140625 18.433594 C 36.359375 18.359375 36.632812 18.28125 36.960938 18.203125 C 37.292969 18.125 37.632812 18.066406 37.980469 18.035156 C 38.332031 18 38.660156 18.003906 38.972656 18.046875 C 39.285156 18.085938 39.53125 18.1875 39.710938 18.34375 C 39.808594 18.433594 39.890625 18.53125 39.957031 18.636719 C 40.023438 18.738281 40.066406 18.847656 40.082031 18.960938 C 40.117188 19.277344 40.070312 19.5625 39.933594 19.820312 Z M 36.5 14.578125 C 36.660156 14.480469 36.847656 14.394531 37.070312 14.320312 C 37.289062 14.246094 37.519531 14.191406 37.75 14.160156 C 37.984375 14.132812 38.210938 14.128906 38.433594 14.148438 C 38.652344 14.171875 38.847656 14.234375 39.015625 14.335938 C 39.1875 14.4375 39.3125 14.582031 39.394531 14.773438 C 39.476562 14.964844 39.5 15.207031 39.460938 15.5 C 39.433594 15.730469 39.339844 15.929688 39.1875 16.089844 C 39.03125 16.25 38.84375 16.386719 38.625 16.492188 C 38.402344 16.601562 38.167969 16.6875 37.917969 16.753906 C 37.671875 16.816406 37.433594 16.863281 37.203125 16.894531 C 36.976562 16.921875 36.777344 16.941406 36.609375 16.949219 C 36.4375 16.957031 36.328125 16.960938 36.277344 16.960938 Z M 41.152344 18.230469 C 41.03125 17.96875 40.871094 17.738281 40.667969 17.539062 C 40.464844 17.339844 40.222656 17.195312 39.945312 17.105469 C 40.066406 17.007812 40.183594 16.855469 40.300781 16.644531 C 40.417969 16.4375 40.515625 16.207031 40.597656 15.960938 C 40.683594 15.710938 40.738281 15.464844 40.769531 15.210938 C 40.796875 14.960938 40.785156 14.746094 40.734375 14.566406 C 40.605469 14.117188 40.40625 13.765625 40.132812 13.507812 C 39.859375 13.253906 39.539062 13.078125 39.175781 12.980469 C 38.8125 12.882812 38.410156 12.863281 37.96875 12.917969 C 37.53125 12.976562 37.082031 13.085938 36.625 13.25 C 36.625 13.214844 36.628906 13.175781 36.636719 13.132812 C 36.644531 13.09375 36.648438 13.050781 36.648438 13.003906 C 36.648438 12.890625 36.589844 12.792969 36.476562 12.710938 C 36.367188 12.628906 36.234375 12.582031 36.089844 12.566406 C 35.941406 12.550781 35.800781 12.582031 35.660156 12.660156 C 35.523438 12.738281 35.425781 12.882812 35.375 13.09375 C 35.316406 13.769531 35.253906 14.46875 35.195312 15.195312 C 35.132812 15.921875 35.070312 16.65625 35.003906 17.398438 C 34.933594 18.140625 34.867188 18.875 34.800781 19.609375 C 34.734375 20.339844 34.664062 21.039062 34.597656 21.714844 C 34.621094 21.917969 34.675781 22.074219 34.765625 22.1875 C 34.855469 22.300781 34.960938 22.367188 35.082031 22.390625 C 35.203125 22.410156 35.328125 22.390625 35.460938 22.328125 C 35.589844 22.265625 35.703125 22.152344 35.800781 21.996094 C 36.101562 22.160156 36.441406 22.269531 36.816406 22.316406 C 37.191406 22.363281 37.570312 22.363281 37.960938 22.316406 C 38.34375 22.269531 38.726562 22.175781 39.101562 22.039062 C 39.476562 21.90625 39.820312 21.738281 40.125 21.535156 C 40.433594 21.332031 40.691406 21.101562 40.902344 20.84375 C 41.113281 20.585938 41.253906 20.304688 41.320312 20.007812 C 41.386719 19.699219 41.40625 19.390625 41.375 19.085938 C 41.347656 18.777344 41.269531 18.492188 41.152344 18.230469 Z M 41.152344 18.230469 "/>
<path style=" stroke:none;fill-rule:evenodd;fill:rgb(5.098039%,4.705882%,13.725491%);fill-opacity:1;" d="M 52.136719 24.164062 C 52.097656 24.414062 52.039062 24.671875 51.960938 24.945312 C 51.886719 25.21875 51.800781 25.46875 51.699219 25.695312 C 51.597656 25.917969 51.484375 26.101562 51.359375 26.238281 C 51.234375 26.378906 51.101562 26.4375 50.960938 26.414062 C 50.847656 26.398438 50.777344 26.328125 50.746094 26.199219 C 50.714844 26.070312 50.714844 25.914062 50.746094 25.726562 C 50.777344 25.539062 50.835938 25.328125 50.921875 25.09375 C 51.007812 24.855469 51.113281 24.621094 51.234375 24.390625 C 51.359375 24.15625 51.5 23.933594 51.660156 23.722656 C 51.816406 23.507812 51.980469 23.328125 52.152344 23.1875 C 52.191406 23.230469 52.207031 23.34375 52.203125 23.523438 C 52.199219 23.703125 52.179688 23.917969 52.136719 24.164062 Z M 55.953125 19.285156 C 55.851562 19.175781 55.730469 19.109375 55.582031 19.097656 C 55.4375 19.082031 55.289062 19.164062 55.136719 19.34375 C 55.039062 19.523438 54.917969 19.695312 54.765625 19.859375 C 54.617188 20.023438 54.460938 20.175781 54.300781 20.308594 C 54.136719 20.445312 53.984375 20.5625 53.835938 20.660156 C 53.691406 20.753906 53.578125 20.828125 53.492188 20.871094 C 53.464844 20.632812 53.445312 20.375 53.441406 20.097656 C 53.4375 19.820312 53.445312 19.539062 53.460938 19.253906 C 53.480469 18.847656 53.53125 18.441406 53.601562 18.027344 C 53.671875 17.617188 53.773438 17.210938 53.910156 16.8125 C 53.910156 16.605469 53.863281 16.433594 53.765625 16.300781 C 53.667969 16.171875 53.546875 16.089844 53.410156 16.054688 C 53.269531 16.023438 53.128906 16.039062 52.980469 16.113281 C 52.835938 16.183594 52.710938 16.3125 52.605469 16.5 C 52.515625 16.746094 52.410156 17.023438 52.292969 17.332031 C 52.179688 17.636719 52.046875 17.953125 51.902344 18.269531 C 51.753906 18.589844 51.589844 18.898438 51.410156 19.195312 C 51.230469 19.496094 51.035156 19.761719 50.820312 19.996094 C 50.605469 20.226562 50.371094 20.410156 50.121094 20.539062 C 49.871094 20.671875 49.597656 20.730469 49.304688 20.714844 C 49.167969 20.675781 49.070312 20.574219 49.011719 20.410156 C 48.953125 20.246094 48.917969 20.039062 48.90625 19.792969 C 48.894531 19.546875 48.90625 19.273438 48.9375 18.976562 C 48.972656 18.683594 49.019531 18.386719 49.074219 18.09375 C 49.128906 17.804688 49.191406 17.527344 49.261719 17.265625 C 49.328125 17 49.390625 16.78125 49.453125 16.601562 C 49.542969 16.382812 49.542969 16.203125 49.453125 16.054688 C 49.359375 15.910156 49.238281 15.8125 49.078125 15.761719 C 48.921875 15.714844 48.757812 15.714844 48.585938 15.769531 C 48.410156 15.820312 48.289062 15.9375 48.210938 16.117188 C 48.085938 16.425781 47.96875 16.769531 47.863281 17.152344 C 47.757812 17.535156 47.675781 17.929688 47.609375 18.335938 C 47.546875 18.746094 47.511719 19.148438 47.503906 19.550781 C 47.503906 19.578125 47.503906 19.601562 47.503906 19.628906 C 47.339844 20.0625 47.183594 20.394531 47.035156 20.613281 C 46.84375 20.898438 46.628906 21.023438 46.386719 20.984375 C 46.28125 20.9375 46.214844 20.835938 46.179688 20.667969 C 46.144531 20.503906 46.136719 20.300781 46.144531 20.0625 C 46.15625 19.824219 46.1875 19.550781 46.230469 19.246094 C 46.277344 18.945312 46.332031 18.628906 46.398438 18.304688 C 46.46875 17.976562 46.539062 17.648438 46.613281 17.320312 C 46.6875 16.992188 46.757812 16.679688 46.816406 16.386719 C 46.808594 16.125 46.730469 15.925781 46.585938 15.785156 C 46.4375 15.648438 46.234375 15.59375 45.972656 15.621094 C 45.792969 15.699219 45.660156 15.796875 45.570312 15.914062 C 45.484375 16.035156 45.417969 16.1875 45.363281 16.375 C 45.332031 16.472656 45.289062 16.667969 45.230469 16.960938 C 45.167969 17.253906 45.089844 17.589844 44.996094 17.964844 C 44.902344 18.34375 44.792969 18.738281 44.664062 19.152344 C 44.539062 19.5625 44.394531 19.9375 44.238281 20.269531 C 44.082031 20.605469 43.90625 20.871094 43.71875 21.074219 C 43.53125 21.277344 43.328125 21.359375 43.113281 21.320312 C 42.992188 21.300781 42.914062 21.175781 42.882812 20.949219 C 42.847656 20.726562 42.839844 20.449219 42.863281 20.117188 C 42.886719 19.789062 42.933594 19.425781 43 19.035156 C 43.066406 18.640625 43.136719 18.269531 43.207031 17.914062 C 43.277344 17.5625 43.34375 17.253906 43.40625 16.984375 C 43.464844 16.714844 43.507812 16.53125 43.527344 16.441406 C 43.527344 16.226562 43.480469 16.050781 43.382812 15.921875 C 43.285156 15.789062 43.167969 15.707031 43.027344 15.671875 C 42.886719 15.640625 42.746094 15.660156 42.597656 15.730469 C 42.453125 15.800781 42.328125 15.929688 42.222656 16.117188 C 42.183594 16.320312 42.136719 16.554688 42.074219 16.820312 C 42.015625 17.085938 41.957031 17.359375 41.902344 17.640625 C 41.84375 17.921875 41.792969 18.195312 41.742188 18.464844 C 41.695312 18.734375 41.660156 18.972656 41.636719 19.175781 C 41.621094 19.332031 41.605469 19.523438 41.585938 19.753906 C 41.566406 19.980469 41.558594 20.222656 41.558594 20.476562 C 41.558594 20.734375 41.578125 20.984375 41.613281 21.238281 C 41.652344 21.488281 41.71875 21.71875 41.816406 21.929688 C 41.914062 22.136719 42.050781 22.308594 42.226562 22.445312 C 42.402344 22.582031 42.628906 22.65625 42.898438 22.671875 C 43.175781 22.683594 43.417969 22.664062 43.625 22.609375 C 43.832031 22.550781 44.019531 22.464844 44.1875 22.34375 C 44.355469 22.222656 44.511719 22.082031 44.648438 21.917969 C 44.789062 21.753906 44.925781 21.574219 45.058594 21.378906 C 45.1875 21.664062 45.351562 21.882812 45.554688 22.039062 C 45.757812 22.199219 45.972656 22.292969 46.195312 22.320312 C 46.421875 22.351562 46.652344 22.320312 46.882812 22.226562 C 47.117188 22.132812 47.328125 21.972656 47.515625 21.75 C 47.636719 21.609375 47.753906 21.453125 47.863281 21.28125 C 47.910156 21.363281 47.960938 21.441406 48.015625 21.511719 C 48.199219 21.753906 48.449219 21.917969 48.765625 22.007812 C 49.101562 22.097656 49.433594 22.113281 49.753906 22.050781 C 50.078125 21.992188 50.386719 21.882812 50.679688 21.726562 C 50.972656 21.570312 51.242188 21.378906 51.496094 21.160156 C 51.746094 20.9375 51.964844 20.707031 52.152344 20.46875 C 52.144531 20.640625 52.140625 20.800781 52.140625 20.957031 C 52.140625 21.109375 52.140625 21.277344 52.132812 21.457031 C 51.757812 21.71875 51.402344 22.035156 51.066406 22.402344 C 50.734375 22.765625 50.441406 23.160156 50.1875 23.574219 C 49.9375 23.992188 49.742188 24.414062 49.597656 24.839844 C 49.457031 25.265625 49.386719 25.664062 49.390625 26.035156 C 49.394531 26.40625 49.480469 26.730469 49.652344 27.007812 C 49.828125 27.285156 50.109375 27.484375 50.5 27.605469 C 50.902344 27.730469 51.261719 27.734375 51.570312 27.617188 C 51.875 27.496094 52.144531 27.296875 52.375 27.019531 C 52.601562 26.742188 52.789062 26.40625 52.9375 26.015625 C 53.082031 25.621094 53.199219 25.210938 53.285156 24.785156 C 53.371094 24.355469 53.425781 23.9375 53.449219 23.523438 C 53.472656 23.113281 53.472656 22.746094 53.449219 22.421875 C 54.09375 22.152344 54.625 21.8125 55.035156 21.398438 C 55.449219 20.988281 55.789062 20.554688 56.0625 20.097656 C 56.144531 19.984375 56.171875 19.847656 56.144531 19.691406 C 56.121094 19.535156 56.054688 19.398438 55.953125 19.285156 Z M 55.953125 19.285156 "/>
<path style=" stroke:none;fill-rule:evenodd;fill:rgb(5.098039%,4.705882%,13.725491%);fill-opacity:1;" d="M 70.160156 18.566406 C 70.179688 18.394531 70.214844 18.214844 70.261719 18.023438 C 70.304688 17.832031 70.363281 17.644531 70.429688 17.464844 C 70.496094 17.285156 70.574219 17.132812 70.664062 17 C 70.753906 16.867188 70.851562 16.773438 70.953125 16.71875 C 71.054688 16.664062 71.15625 16.667969 71.261719 16.734375 C 71.375 16.804688 71.445312 16.945312 71.472656 17.164062 C 71.496094 17.378906 71.472656 17.613281 71.390625 17.859375 C 71.3125 18.105469 71.171875 18.339844 70.96875 18.554688 C 70.765625 18.773438 70.492188 18.917969 70.148438 18.984375 C 70.132812 18.878906 70.136719 18.742188 70.160156 18.566406 Z M 74.0625 19.027344 C 73.9375 18.992188 73.820312 18.988281 73.707031 19.015625 C 73.59375 19.046875 73.523438 19.125 73.492188 19.253906 C 73.433594 19.492188 73.335938 19.738281 73.203125 19.988281 C 73.074219 20.242188 72.910156 20.480469 72.722656 20.703125 C 72.53125 20.929688 72.3125 21.128906 72.074219 21.300781 C 71.832031 21.472656 71.582031 21.59375 71.320312 21.671875 C 71.054688 21.753906 70.839844 21.761719 70.664062 21.699219 C 70.492188 21.636719 70.355469 21.527344 70.253906 21.371094 C 70.152344 21.21875 70.082031 21.035156 70.035156 20.816406 C 69.988281 20.597656 69.964844 20.375 69.957031 20.140625 C 70.382812 20.171875 70.765625 20.09375 71.097656 19.910156 C 71.433594 19.726562 71.714844 19.484375 71.949219 19.179688 C 72.183594 18.878906 72.359375 18.535156 72.480469 18.15625 C 72.597656 17.78125 72.667969 17.402344 72.679688 17.027344 C 72.6875 16.675781 72.636719 16.378906 72.523438 16.132812 C 72.410156 15.890625 72.257812 15.703125 72.066406 15.566406 C 71.875 15.433594 71.65625 15.351562 71.410156 15.332031 C 71.160156 15.308594 70.910156 15.34375 70.65625 15.433594 C 70.347656 15.535156 70.085938 15.707031 69.871094 15.941406 C 69.65625 16.179688 69.480469 16.453125 69.335938 16.765625 C 69.195312 17.074219 69.082031 17.410156 69 17.769531 C 68.917969 18.128906 68.855469 18.484375 68.820312 18.832031 C 68.785156 19.144531 68.765625 19.445312 68.761719 19.734375 C 68.746094 19.769531 68.730469 19.804688 68.710938 19.84375 C 68.59375 20.109375 68.460938 20.371094 68.308594 20.625 C 68.152344 20.878906 67.980469 21.09375 67.792969 21.265625 C 67.605469 21.4375 67.410156 21.496094 67.207031 21.445312 C 67.089844 21.414062 67.023438 21.277344 67.011719 21.03125 C 67 20.78125 67.011719 20.476562 67.050781 20.109375 C 67.089844 19.742188 67.132812 19.34375 67.179688 18.917969 C 67.230469 18.488281 67.253906 18.082031 67.253906 17.691406 C 67.253906 17.355469 67.191406 17.03125 67.0625 16.71875 C 66.933594 16.40625 66.761719 16.148438 66.539062 15.941406 C 66.316406 15.738281 66.058594 15.601562 65.765625 15.53125 C 65.476562 15.464844 65.160156 15.511719 64.820312 15.667969 C 64.484375 15.824219 64.214844 16.046875 64.015625 16.332031 C 63.816406 16.617188 63.636719 16.914062 63.46875 17.230469 C 63.410156 16.992188 63.320312 16.769531 63.207031 16.5625 C 63.089844 16.355469 62.945312 16.175781 62.777344 16.023438 C 62.609375 15.867188 62.417969 15.75 62.210938 15.664062 C 62 15.578125 61.777344 15.53125 61.542969 15.53125 C 61.320312 15.53125 61.113281 15.578125 60.921875 15.664062 C 60.730469 15.75 60.554688 15.859375 60.394531 15.992188 C 60.238281 16.128906 60.097656 16.28125 59.96875 16.449219 C 59.839844 16.617188 59.726562 16.785156 59.628906 16.949219 C 59.617188 16.753906 59.597656 16.585938 59.582031 16.4375 C 59.5625 16.292969 59.527344 16.167969 59.480469 16.066406 C 59.429688 15.964844 59.359375 15.890625 59.269531 15.835938 C 59.179688 15.785156 59.050781 15.757812 58.886719 15.757812 C 58.804688 15.757812 58.722656 15.773438 58.640625 15.808594 C 58.558594 15.84375 58.484375 15.890625 58.421875 15.949219 C 58.355469 16.007812 58.308594 16.082031 58.273438 16.167969 C 58.238281 16.253906 58.230469 16.355469 58.246094 16.464844 C 58.253906 16.546875 58.273438 16.648438 58.308594 16.765625 C 58.339844 16.878906 58.375 17.03125 58.402344 17.21875 C 58.433594 17.40625 58.457031 17.632812 58.476562 17.898438 C 58.496094 18.164062 58.5 18.492188 58.492188 18.878906 C 58.484375 19.261719 58.457031 19.714844 58.410156 20.230469 C 58.359375 20.75 58.28125 21.347656 58.179688 22.03125 C 58.164062 22.1875 58.222656 22.316406 58.359375 22.414062 C 58.492188 22.507812 58.648438 22.566406 58.820312 22.582031 C 58.992188 22.59375 59.15625 22.566406 59.308594 22.492188 C 59.464844 22.414062 59.550781 22.285156 59.574219 22.097656 C 59.597656 21.746094 59.640625 21.371094 59.703125 20.972656 C 59.765625 20.578125 59.847656 20.183594 59.941406 19.792969 C 60.035156 19.402344 60.140625 19.03125 60.261719 18.679688 C 60.382812 18.328125 60.515625 18.015625 60.660156 17.746094 C 60.808594 17.476562 60.960938 17.261719 61.117188 17.101562 C 61.273438 16.941406 61.441406 16.859375 61.613281 16.859375 C 61.824219 16.859375 61.984375 16.953125 62.101562 17.144531 C 62.21875 17.335938 62.300781 17.582031 62.351562 17.882812 C 62.398438 18.183594 62.421875 18.511719 62.417969 18.867188 C 62.414062 19.222656 62.398438 19.566406 62.371094 19.894531 C 62.347656 20.222656 62.316406 20.519531 62.28125 20.777344 C 62.25 21.035156 62.222656 21.214844 62.210938 21.308594 C 62.210938 21.484375 62.273438 21.621094 62.40625 21.722656 C 62.539062 21.820312 62.683594 21.882812 62.84375 21.902344 C 63.007812 21.917969 63.160156 21.890625 63.300781 21.8125 C 63.445312 21.730469 63.527344 21.597656 63.550781 21.410156 C 63.625 20.871094 63.726562 20.332031 63.859375 19.789062 C 63.988281 19.246094 64.140625 18.757812 64.308594 18.328125 C 64.476562 17.894531 64.664062 17.542969 64.871094 17.269531 C 65.078125 16.996094 65.296875 16.859375 65.53125 16.859375 C 65.652344 16.859375 65.742188 16.941406 65.808594 17.105469 C 65.871094 17.273438 65.902344 17.496094 65.902344 17.78125 C 65.902344 17.992188 65.886719 18.207031 65.851562 18.425781 C 65.816406 18.648438 65.777344 18.878906 65.734375 19.113281 C 65.6875 19.347656 65.648438 19.589844 65.617188 19.839844 C 65.582031 20.085938 65.566406 20.34375 65.566406 20.613281 C 65.566406 20.800781 65.582031 21.019531 65.621094 21.265625 C 65.660156 21.511719 65.730469 21.746094 65.835938 21.96875 C 65.941406 22.1875 66.085938 22.375 66.269531 22.53125 C 66.453125 22.683594 66.6875 22.761719 66.972656 22.761719 C 67.398438 22.761719 67.777344 22.667969 68.109375 22.484375 C 68.441406 22.300781 68.722656 22.0625 68.960938 21.765625 C 68.972656 21.75 68.984375 21.734375 68.996094 21.71875 C 69.011719 21.761719 69.03125 21.808594 69.050781 21.851562 C 69.210938 22.179688 69.429688 22.433594 69.707031 22.613281 C 69.984375 22.792969 70.3125 22.894531 70.6875 22.914062 C 71.0625 22.929688 71.472656 22.863281 71.914062 22.703125 C 72.246094 22.585938 72.53125 22.433594 72.777344 22.253906 C 73.019531 22.074219 73.242188 21.855469 73.4375 21.597656 C 73.632812 21.339844 73.808594 21.039062 73.96875 20.703125 C 74.132812 20.367188 74.296875 19.980469 74.460938 19.546875 C 74.492188 19.425781 74.460938 19.320312 74.375 19.226562 C 74.289062 19.132812 74.183594 19.066406 74.0625 19.027344 Z M 74.0625 19.027344 "/>
<path style=" stroke:none;fill-rule:evenodd;fill:rgb(5.098039%,4.705882%,13.725491%);fill-opacity:1;" d="M 80.179688 17.773438 C 80.144531 17.996094 80.09375 18.238281 80.027344 18.503906 C 79.964844 18.773438 79.882812 19.046875 79.785156 19.332031 C 79.6875 19.617188 79.570312 19.875 79.425781 20.101562 C 79.285156 20.332031 79.121094 20.511719 78.9375 20.648438 C 78.753906 20.78125 78.539062 20.839844 78.300781 20.816406 C 78.179688 20.800781 78.085938 20.71875 78.023438 20.566406 C 77.960938 20.417969 77.925781 20.226562 77.921875 19.996094 C 77.917969 19.761719 77.941406 19.507812 77.984375 19.230469 C 78.03125 18.953125 78.097656 18.683594 78.191406 18.414062 C 78.285156 18.148438 78.402344 17.902344 78.535156 17.679688 C 78.671875 17.453125 78.828125 17.28125 79.003906 17.15625 C 79.179688 17.03125 79.375 16.976562 79.582031 16.984375 C 79.792969 16.988281 80.019531 17.09375 80.257812 17.296875 C 80.242188 17.394531 80.21875 17.554688 80.179688 17.773438 Z M 84.183594 18.632812 C 84.066406 18.574219 83.945312 18.5625 83.824219 18.59375 C 83.699219 18.628906 83.609375 18.742188 83.558594 18.9375 C 83.527344 19.148438 83.460938 19.394531 83.355469 19.679688 C 83.25 19.964844 83.121094 20.234375 82.96875 20.488281 C 82.8125 20.746094 82.636719 20.957031 82.4375 21.125 C 82.238281 21.292969 82.027344 21.371094 81.800781 21.355469 C 81.613281 21.339844 81.484375 21.246094 81.40625 21.070312 C 81.332031 20.890625 81.292969 20.671875 81.289062 20.40625 C 81.285156 20.140625 81.3125 19.839844 81.367188 19.507812 C 81.425781 19.171875 81.492188 18.839844 81.570312 18.511719 C 81.648438 18.179688 81.730469 17.863281 81.8125 17.5625 C 81.894531 17.257812 81.964844 17 82.015625 16.792969 C 82.074219 16.605469 82.058594 16.445312 81.960938 16.3125 C 81.863281 16.183594 81.738281 16.089844 81.59375 16.03125 C 81.445312 15.976562 81.296875 15.960938 81.148438 15.988281 C 81 16.015625 80.902344 16.09375 80.855469 16.230469 C 80.414062 15.847656 79.988281 15.640625 79.578125 15.609375 C 79.167969 15.582031 78.792969 15.671875 78.445312 15.882812 C 78.101562 16.089844 77.796875 16.394531 77.527344 16.792969 C 77.261719 17.1875 77.046875 17.621094 76.882812 18.089844 C 76.714844 18.558594 76.613281 19.035156 76.570312 19.523438 C 76.53125 20.011719 76.5625 20.453125 76.667969 20.855469 C 76.773438 21.253906 76.957031 21.582031 77.226562 21.839844 C 77.492188 22.09375 77.851562 22.21875 78.3125 22.21875 C 78.515625 22.21875 78.710938 22.179688 78.898438 22.097656 C 79.085938 22.015625 79.257812 21.917969 79.414062 21.804688 C 79.574219 21.691406 79.710938 21.574219 79.832031 21.449219 C 79.953125 21.328125 80.046875 21.222656 80.113281 21.140625 C 80.164062 21.410156 80.25 21.640625 80.371094 21.828125 C 80.492188 22.015625 80.628906 22.167969 80.78125 22.289062 C 80.9375 22.40625 81.097656 22.496094 81.265625 22.550781 C 81.4375 22.609375 81.597656 22.636719 81.757812 22.636719 C 82.109375 22.636719 82.441406 22.515625 82.746094 22.277344 C 83.054688 22.035156 83.332031 21.742188 83.574219 21.394531 C 83.820312 21.046875 84.019531 20.679688 84.175781 20.292969 C 84.335938 19.90625 84.441406 19.5625 84.492188 19.265625 C 84.546875 19.152344 84.535156 19.035156 84.464844 18.910156 C 84.394531 18.785156 84.300781 18.695312 84.183594 18.632812 Z M 84.183594 18.632812 "/>
<path style=" stroke:none;fill-rule:evenodd;fill:rgb(5.098039%,4.705882%,13.725491%);fill-opacity:1;" d="M 104.453125 24.839844 C 104.386719 25.09375 104.289062 25.3125 104.152344 25.488281 C 104.019531 25.664062 103.851562 25.753906 103.648438 25.761719 C 103.519531 25.769531 103.421875 25.703125 103.355469 25.558594 C 103.285156 25.417969 103.238281 25.234375 103.214844 25.007812 C 103.1875 24.785156 103.175781 24.53125 103.179688 24.253906 C 103.183594 23.980469 103.195312 23.703125 103.214844 23.433594 C 103.230469 23.164062 103.253906 22.914062 103.28125 22.683594 C 103.308594 22.449219 103.328125 22.269531 103.34375 22.144531 C 103.597656 22.171875 103.8125 22.28125 103.980469 22.472656 C 104.148438 22.664062 104.277344 22.890625 104.367188 23.152344 C 104.457031 23.417969 104.511719 23.699219 104.527344 24.003906 C 104.539062 24.304688 104.515625 24.585938 104.453125 24.839844 Z M 100.375 24.839844 C 100.3125 25.09375 100.210938 25.3125 100.078125 25.488281 C 99.941406 25.664062 99.773438 25.753906 99.570312 25.761719 C 99.441406 25.769531 99.347656 25.703125 99.277344 25.558594 C 99.210938 25.417969 99.164062 25.234375 99.136719 25.007812 C 99.109375 24.785156 99.101562 24.53125 99.105469 24.253906 C 99.105469 23.980469 99.117188 23.703125 99.136719 23.433594 C 99.15625 23.164062 99.179688 22.914062 99.203125 22.683594 C 99.230469 22.449219 99.25 22.269531 99.265625 22.144531 C 99.523438 22.171875 99.734375 22.28125 99.902344 22.472656 C 100.070312 22.664062 100.203125 22.890625 100.292969 23.152344 C 100.382812 23.417969 100.433594 23.699219 100.449219 24.003906 C 100.464844 24.304688 100.441406 24.585938 100.375 24.839844 Z M 96.191406 18.457031 C 96.183594 18.636719 96.167969 18.792969 96.140625 18.933594 C 96.117188 19.074219 96.082031 19.160156 96.035156 19.199219 C 95.953125 19.152344 95.851562 19.035156 95.730469 18.847656 C 95.609375 18.660156 95.515625 18.449219 95.449219 18.214844 C 95.382812 17.976562 95.359375 17.746094 95.386719 17.515625 C 95.414062 17.289062 95.53125 17.109375 95.742188 16.984375 C 95.824219 16.9375 95.894531 16.957031 95.957031 17.035156 C 96.015625 17.113281 96.066406 17.226562 96.101562 17.375 C 96.140625 17.527344 96.167969 17.699219 96.179688 17.894531 C 96.195312 18.089844 96.199219 18.277344 96.191406 18.457031 Z M 95.195312 20.699219 C 95.078125 20.820312 94.949219 20.929688 94.808594 21.019531 C 94.664062 21.109375 94.519531 21.175781 94.367188 21.222656 C 94.21875 21.265625 94.082031 21.277344 93.964844 21.253906 C 93.625 21.1875 93.367188 21.039062 93.1875 20.816406 C 93.007812 20.589844 92.890625 20.328125 92.84375 20.023438 C 92.792969 19.71875 92.800781 19.394531 92.859375 19.050781 C 92.917969 18.707031 93.019531 18.386719 93.164062 18.089844 C 93.304688 17.792969 93.480469 17.539062 93.683594 17.328125 C 93.882812 17.113281 94.105469 16.980469 94.347656 16.925781 C 94.257812 17.308594 94.226562 17.703125 94.257812 18.113281 C 94.285156 18.519531 94.382812 18.90625 94.546875 19.265625 C 94.652344 19.484375 94.78125 19.679688 94.925781 19.859375 C 95.074219 20.039062 95.25 20.195312 95.460938 20.320312 C 95.402344 20.449219 95.3125 20.574219 95.195312 20.699219 Z M 107.65625 18.566406 C 107.679688 18.394531 107.710938 18.214844 107.757812 18.023438 C 107.800781 17.832031 107.859375 17.648438 107.925781 17.464844 C 107.992188 17.285156 108.074219 17.132812 108.164062 17 C 108.253906 16.871094 108.347656 16.773438 108.449219 16.71875 C 108.550781 16.664062 108.652344 16.667969 108.757812 16.734375 C 108.871094 16.804688 108.941406 16.945312 108.96875 17.164062 C 108.992188 17.378906 108.96875 17.613281 108.890625 17.859375 C 108.808594 18.105469 108.667969 18.339844 108.464844 18.558594 C 108.265625 18.773438 107.988281 18.917969 107.644531 18.984375 C 107.628906 18.878906 107.632812 18.742188 107.65625 18.566406 Z M 112.195312 18.566406 C 112.214844 18.394531 112.25 18.214844 112.296875 18.023438 C 112.339844 17.832031 112.394531 17.648438 112.464844 17.464844 C 112.53125 17.285156 112.609375 17.132812 112.699219 17 C 112.789062 16.871094 112.886719 16.773438 112.988281 16.71875 C 113.089844 16.664062 113.191406 16.667969 113.296875 16.734375 C 113.410156 16.804688 113.480469 16.945312 113.503906 17.164062 C 113.53125 17.378906 113.503906 17.613281 113.425781 17.859375 C 113.347656 18.105469 113.207031 18.339844 113.003906 18.558594 C 112.800781 18.773438 112.527344 18.917969 112.183594 18.984375 C 112.167969 18.878906 112.171875 18.742188 112.195312 18.566406 Z M 116.410156 19.226562 C 116.324219 19.132812 116.21875 19.066406 116.09375 19.027344 C 115.972656 18.992188 115.851562 18.988281 115.742188 19.019531 C 115.628906 19.046875 115.554688 19.125 115.527344 19.253906 C 115.464844 19.492188 115.371094 19.738281 115.238281 19.988281 C 115.109375 20.242188 114.945312 20.480469 114.753906 20.703125 C 114.5625 20.929688 114.347656 21.128906 114.109375 21.300781 C 113.867188 21.472656 113.617188 21.59375 113.355469 21.671875 C 113.089844 21.753906 112.871094 21.761719 112.699219 21.699219 C 112.527344 21.636719 112.390625 21.527344 112.289062 21.371094 C 112.1875 21.21875 112.113281 21.035156 112.070312 20.816406 C 112.023438 20.597656 112 20.375 111.992188 20.140625 C 112.417969 20.171875 112.800781 20.09375 113.132812 19.910156 C 113.46875 19.726562 113.75 19.484375 113.984375 19.179688 C 114.21875 18.878906 114.394531 18.535156 114.511719 18.15625 C 114.632812 17.78125 114.699219 17.402344 114.714844 17.027344 C 114.722656 16.675781 114.671875 16.378906 114.558594 16.132812 C 114.445312 15.890625 114.292969 15.703125 114.101562 15.566406 C 113.910156 15.433594 113.691406 15.351562 113.445312 15.332031 C 113.195312 15.308594 112.945312 15.34375 112.6875 15.433594 C 112.382812 15.539062 112.121094 15.707031 111.90625 15.945312 C 111.691406 16.179688 111.515625 16.453125 111.371094 16.765625 C 111.230469 17.074219 111.117188 17.410156 111.035156 17.769531 C 110.949219 18.128906 110.890625 18.484375 110.855469 18.832031 C 110.816406 19.171875 110.796875 19.492188 110.792969 19.804688 C 110.765625 19.867188 110.734375 19.925781 110.703125 19.988281 C 110.570312 20.242188 110.410156 20.480469 110.21875 20.703125 C 110.027344 20.929688 109.808594 21.128906 109.570312 21.300781 C 109.328125 21.472656 109.078125 21.59375 108.816406 21.671875 C 108.550781 21.753906 108.335938 21.761719 108.164062 21.699219 C 107.988281 21.636719 107.851562 21.527344 107.75 21.371094 C 107.648438 21.21875 107.578125 21.035156 107.53125 20.816406 C 107.488281 20.597656 107.460938 20.375 107.453125 20.140625 C 107.882812 20.171875 108.261719 20.09375 108.597656 19.910156 C 108.929688 19.726562 109.214844 19.484375 109.445312 19.179688 C 109.679688 18.878906 109.855469 18.535156 109.976562 18.15625 C 110.09375 17.78125 110.164062 17.402344 110.179688 17.027344 C 110.183594 16.675781 110.132812 16.378906 110.019531 16.132812 C 109.90625 15.890625 109.753906 15.703125 109.5625 15.566406 C 109.371094 15.433594 109.152344 15.351562 108.90625 15.332031 C 108.65625 15.308594 108.40625 15.34375 108.152344 15.433594 C 107.84375 15.539062 107.582031 15.707031 107.367188 15.945312 C 107.15625 16.179688 106.976562 16.453125 106.832031 16.765625 C 106.691406 17.074219 106.578125 17.410156 106.496094 17.769531 C 106.414062 18.128906 106.351562 18.484375 106.316406 18.832031 C 106.292969 19.027344 106.28125 19.21875 106.269531 19.40625 C 106.195312 19.46875 106.125 19.53125 106.050781 19.589844 C 105.792969 19.800781 105.519531 19.988281 105.234375 20.160156 C 104.949219 20.328125 104.652344 20.464844 104.34375 20.574219 C 104.039062 20.683594 103.722656 20.75 103.398438 20.769531 L 104.097656 13.308594 C 104.144531 13.148438 104.121094 13.011719 104.03125 12.890625 C 103.941406 12.773438 103.824219 12.691406 103.679688 12.644531 C 103.539062 12.597656 103.386719 12.601562 103.226562 12.65625 C 103.0625 12.707031 102.929688 12.828125 102.824219 13.015625 C 102.773438 13.300781 102.71875 13.691406 102.660156 14.183594 C 102.605469 14.679688 102.550781 15.21875 102.492188 15.804688 C 102.4375 16.386719 102.378906 16.992188 102.324219 17.613281 C 102.269531 18.234375 102.21875 18.816406 102.175781 19.355469 C 102.175781 19.378906 102.175781 19.402344 102.171875 19.425781 C 102.105469 19.480469 102.042969 19.535156 101.976562 19.589844 C 101.714844 19.800781 101.445312 19.988281 101.160156 20.160156 C 100.875 20.328125 100.578125 20.464844 100.269531 20.574219 C 99.960938 20.683594 99.644531 20.75 99.324219 20.769531 L 100.019531 13.308594 C 100.066406 13.148438 100.042969 13.011719 99.953125 12.890625 C 99.863281 12.773438 99.746094 12.691406 99.605469 12.644531 C 99.460938 12.597656 99.308594 12.601562 99.148438 12.65625 C 98.988281 12.707031 98.855469 12.828125 98.75 13.015625 C 98.695312 13.300781 98.640625 13.691406 98.585938 14.183594 C 98.527344 14.679688 98.472656 15.21875 98.417969 15.804688 C 98.359375 16.386719 98.304688 16.992188 98.246094 17.613281 C 98.191406 18.234375 98.144531 18.816406 98.101562 19.355469 C 98.101562 19.367188 98.101562 19.375 98.097656 19.386719 C 97.980469 19.441406 97.851562 19.488281 97.710938 19.527344 C 97.570312 19.570312 97.410156 19.59375 97.230469 19.601562 C 97.257812 19.46875 97.28125 19.316406 97.300781 19.152344 C 97.320312 18.988281 97.335938 18.816406 97.347656 18.636719 C 97.359375 18.457031 97.363281 18.277344 97.359375 18.097656 C 97.355469 17.917969 97.34375 17.75 97.332031 17.601562 C 97.292969 17.28125 97.222656 16.972656 97.121094 16.683594 C 97.019531 16.398438 96.882812 16.15625 96.710938 15.960938 C 96.539062 15.765625 96.324219 15.632812 96.0625 15.566406 C 95.804688 15.5 95.503906 15.523438 95.15625 15.632812 C 94.644531 15.566406 94.1875 15.613281 93.777344 15.773438 C 93.367188 15.9375 93.011719 16.171875 92.714844 16.476562 C 92.414062 16.785156 92.167969 17.144531 91.976562 17.5625 C 91.785156 17.976562 91.65625 18.40625 91.59375 18.84375 C 91.566406 19.027344 91.554688 19.214844 91.550781 19.398438 C 91.433594 19.636719 91.304688 19.84375 91.164062 20.019531 C 90.964844 20.265625 90.757812 20.46875 90.546875 20.625 C 90.332031 20.78125 90.121094 20.902344 89.910156 20.984375 C 89.699219 21.066406 89.511719 21.125 89.347656 21.152344 C 89.152344 21.191406 88.964844 21.195312 88.785156 21.164062 C 88.601562 21.136719 88.4375 21.046875 88.289062 20.90625 C 88.167969 20.800781 88.074219 20.632812 88.011719 20.398438 C 87.949219 20.167969 87.910156 19.902344 87.898438 19.609375 C 87.886719 19.3125 87.898438 19.003906 87.933594 18.679688 C 87.96875 18.359375 88.023438 18.054688 88.109375 17.765625 C 88.191406 17.476562 88.296875 17.21875 88.421875 16.988281 C 88.550781 16.761719 88.699219 16.597656 88.875 16.5 C 88.972656 16.515625 89.03125 16.574219 89.054688 16.675781 C 89.078125 16.773438 89.082031 16.894531 89.070312 17.035156 C 89.058594 17.171875 89.042969 17.316406 89.019531 17.460938 C 88.996094 17.605469 88.984375 17.730469 88.984375 17.828125 C 89.023438 18.027344 89.097656 18.1875 89.207031 18.296875 C 89.316406 18.410156 89.4375 18.476562 89.570312 18.496094 C 89.707031 18.515625 89.839844 18.480469 89.972656 18.398438 C 90.101562 18.316406 90.210938 18.1875 90.292969 18.007812 C 90.300781 18.011719 90.3125 18.015625 90.328125 18.015625 L 90.484375 16.589844 C 90.527344 16.394531 90.5 16.222656 90.394531 16.074219 C 90.289062 15.921875 90.148438 15.835938 89.976562 15.8125 C 89.757812 15.5 89.464844 15.332031 89.09375 15.3125 C 88.722656 15.296875 88.339844 15.417969 87.949219 15.679688 C 87.710938 15.851562 87.496094 16.089844 87.3125 16.394531 C 87.128906 16.695312 86.980469 17.035156 86.863281 17.40625 C 86.746094 17.777344 86.664062 18.167969 86.617188 18.578125 C 86.566406 18.992188 86.558594 19.394531 86.585938 19.78125 C 86.617188 20.171875 86.6875 20.539062 86.796875 20.882812 C 86.90625 21.226562 87.058594 21.515625 87.253906 21.75 C 87.417969 21.953125 87.605469 22.097656 87.816406 22.191406 C 88.023438 22.285156 88.246094 22.34375 88.472656 22.367188 C 88.703125 22.390625 88.929688 22.378906 89.15625 22.339844 C 89.378906 22.296875 89.59375 22.238281 89.796875 22.164062 C 90.058594 22.066406 90.332031 21.945312 90.609375 21.792969 C 90.886719 21.644531 91.152344 21.464844 91.40625 21.253906 C 91.542969 21.144531 91.671875 21.023438 91.796875 20.894531 C 91.851562 21.035156 91.917969 21.171875 91.992188 21.300781 C 92.195312 21.636719 92.46875 21.910156 92.816406 22.121094 C 93.160156 22.328125 93.585938 22.429688 94.085938 22.421875 C 94.628906 22.417969 95.125 22.28125 95.585938 22.011719 C 96.042969 21.746094 96.417969 21.355469 96.710938 20.839844 C 97.148438 20.839844 97.582031 20.765625 98.003906 20.625 C 98 20.667969 97.996094 20.714844 97.996094 20.761719 C 97.964844 21.15625 97.949219 21.425781 97.949219 21.570312 C 97.941406 21.816406 97.925781 22.121094 97.898438 22.484375 C 97.871094 22.847656 97.855469 23.230469 97.847656 23.632812 C 97.839844 24.03125 97.855469 24.4375 97.894531 24.847656 C 97.929688 25.253906 98.007812 25.625 98.128906 25.957031 C 98.25 26.292969 98.421875 26.574219 98.640625 26.808594 C 98.863281 27.039062 99.152344 27.179688 99.515625 27.222656 C 99.898438 27.277344 100.226562 27.207031 100.503906 27.019531 C 100.785156 26.832031 101.007812 26.578125 101.179688 26.25 C 101.355469 25.925781 101.476562 25.546875 101.546875 25.121094 C 101.617188 24.695312 101.640625 24.265625 101.609375 23.835938 C 101.578125 23.402344 101.5 22.996094 101.371094 22.613281 C 101.246094 22.234375 101.066406 21.917969 100.84375 21.671875 C 100.980469 21.632812 101.140625 21.5625 101.328125 21.457031 C 101.515625 21.351562 101.707031 21.234375 101.90625 21.101562 C 101.957031 21.070312 102.003906 21.035156 102.054688 21.003906 C 102.035156 21.269531 102.027344 21.457031 102.027344 21.570312 C 102.019531 21.816406 102 22.121094 101.976562 22.484375 C 101.949219 22.847656 101.933594 23.230469 101.925781 23.632812 C 101.917969 24.03125 101.933594 24.4375 101.96875 24.847656 C 102.007812 25.253906 102.085938 25.625 102.207031 25.957031 C 102.324219 26.292969 102.496094 26.574219 102.71875 26.808594 C 102.941406 27.039062 103.230469 27.179688 103.589844 27.222656 C 103.972656 27.277344 104.304688 27.207031 104.582031 27.019531 C 104.859375 26.832031 105.085938 26.578125 105.257812 26.25 C 105.429688 25.925781 105.550781 25.546875 105.625 25.121094 C 105.695312 24.695312 105.714844 24.265625 105.683594 23.835938 C 105.65625 23.402344 105.578125 22.996094 105.449219 22.613281 C 105.320312 22.234375 105.144531 21.917969 104.917969 21.671875 C 105.054688 21.632812 105.214844 21.5625 105.402344 21.457031 C 105.589844 21.351562 105.785156 21.234375 105.984375 21.101562 C 106.085938 21.035156 106.191406 20.964844 106.292969 20.890625 C 106.332031 21.257812 106.414062 21.578125 106.546875 21.851562 C 106.707031 22.179688 106.925781 22.433594 107.207031 22.613281 C 107.484375 22.792969 107.808594 22.894531 108.183594 22.914062 C 108.558594 22.929688 108.96875 22.863281 109.414062 22.703125 C 109.742188 22.585938 110.03125 22.433594 110.273438 22.253906 C 110.515625 22.074219 110.738281 21.855469 110.933594 21.597656 C 110.945312 21.582031 110.953125 21.566406 110.964844 21.550781 C 111 21.65625 111.039062 21.757812 111.085938 21.851562 C 111.246094 22.179688 111.464844 22.433594 111.742188 22.613281 C 112.019531 22.792969 112.347656 22.894531 112.722656 22.914062 C 113.097656 22.929688 113.507812 22.863281 113.949219 22.703125 C 114.28125 22.585938 114.566406 22.433594 114.8125 22.253906 C 115.054688 22.074219 115.273438 21.855469 115.46875 21.597656 C 115.664062 21.339844 115.84375 21.039062 116.003906 20.703125 C 116.167969 20.367188 116.328125 19.980469 116.496094 19.546875 C 116.523438 19.425781 116.496094 19.320312 116.410156 19.226562 Z M 116.410156 19.226562 "/>
</g>
</svg>
