<?xml version="1.0" encoding="UTF-8"?>
<svg xmlns="http://www.w3.org/2000/svg" xmlns:xlink="http://www.w3.org/1999/xlink" width="107px" height="30px" viewBox="0 0 106 30" version="1.1">
<g id="surface1">
<path style=" stroke:none;fill-rule:nonzero;fill:rgb(100%,86.666667%,0%);fill-opacity:1;" d="M 0 4.800781 C 0 2.148438 2.132812 0 4.761719 0 L 101.175781 0 C 103.808594 0 105.9375 2.148438 105.9375 4.800781 L 105.9375 25.199219 C 105.9375 27.851562 103.808594 30 101.175781 30 L 4.761719 30 C 2.132812 30 0 27.851562 0 25.199219 Z M 0 4.800781 "/>
<path style=" stroke:none;fill-rule:nonzero;fill:rgb(5.098039%,4.705882%,13.333334%);fill-opacity:1;" d="M 21.300781 9.867188 L 21.289062 9.859375 L 21.257812 9.851562 C 21.269531 9.859375 21.285156 9.867188 21.300781 9.867188 Z M 21.300781 9.867188 "/>
<path style=" stroke:none;fill-rule:nonzero;fill:rgb(5.098039%,4.705882%,13.333334%);fill-opacity:1;" d="M 21.492188 11.238281 L 21.480469 11.242188 Z M 21.492188 11.238281 "/>
<path style=" stroke:none;fill-rule:nonzero;fill:rgb(5.098039%,4.705882%,13.333334%);fill-opacity:1;" d="M 21.308594 9.863281 C 21.304688 9.863281 21.304688 9.863281 21.300781 9.863281 C 21.300781 9.863281 21.300781 9.867188 21.300781 9.867188 C 21.304688 9.867188 21.304688 9.867188 21.308594 9.863281 Z M 21.308594 9.863281 "/>
<path style=" stroke:none;fill-rule:nonzero;fill:rgb(5.098039%,4.705882%,13.333334%);fill-opacity:1;" d="M 21.484375 11.238281 L 21.511719 11.21875 L 21.519531 11.210938 C 21.503906 11.21875 21.492188 11.222656 21.484375 11.238281 Z M 21.484375 11.238281 "/>
<path style=" stroke:none;fill-rule:nonzero;fill:rgb(5.098039%,4.705882%,13.333334%);fill-opacity:1;" d="M 21.339844 9.894531 L 21.316406 9.875 L 21.300781 9.867188 C 21.3125 9.882812 21.324219 9.894531 21.339844 9.894531 Z M 21.339844 9.894531 "/>
<path style=" stroke:none;fill-rule:nonzero;fill:rgb(5.098039%,4.705882%,13.333334%);fill-opacity:1;" d="M 15.925781 23.207031 C 15.910156 23.214844 15.894531 23.226562 15.878906 23.242188 L 15.894531 23.230469 C 15.90625 23.222656 15.917969 23.214844 15.925781 23.207031 Z M 15.925781 23.207031 "/>
<path style=" stroke:none;fill-rule:nonzero;fill:rgb(5.098039%,4.705882%,13.333334%);fill-opacity:1;" d="M 19.070312 22.582031 C 19.070312 22.5625 19.058594 22.566406 19.0625 22.636719 C 19.0625 22.628906 19.0625 22.625 19.066406 22.621094 C 19.066406 22.605469 19.066406 22.59375 19.070312 22.582031 Z M 19.070312 22.582031 "/>
<path style=" stroke:none;fill-rule:nonzero;fill:rgb(5.098039%,4.705882%,13.333334%);fill-opacity:1;" d="M 18.746094 23.207031 C 18.726562 23.214844 18.714844 23.226562 18.699219 23.242188 L 18.714844 23.230469 C 18.722656 23.222656 18.734375 23.214844 18.746094 23.207031 Z M 18.746094 23.207031 "/>
<path style=" stroke:none;fill-rule:nonzero;fill:rgb(5.098039%,4.705882%,13.333334%);fill-opacity:1;" d="M 13.710938 23.355469 C 13.695312 23.34375 13.679688 23.335938 13.664062 23.332031 C 13.675781 23.339844 13.691406 23.347656 13.699219 23.351562 Z M 13.710938 23.355469 "/>
<path style=" stroke:none;fill-rule:nonzero;fill:rgb(5.098039%,4.705882%,13.333334%);fill-opacity:1;" d="M 13.210938 22.875 C 13.210938 22.855469 13.203125 22.835938 13.195312 22.816406 C 13.203125 22.835938 13.207031 22.855469 13.210938 22.875 Z M 13.210938 22.875 "/>
<path style=" stroke:none;fill-rule:nonzero;fill:rgb(100%,100%,100%);fill-opacity:1;" d="M 16.558594 14.269531 C 15.875 14.5625 15.097656 14.898438 14.089844 14.898438 C 13.671875 14.898438 13.253906 14.839844 12.84375 14.726562 L 13.542969 21.929688 C 13.566406 22.230469 13.703125 22.511719 13.921875 22.714844 C 14.144531 22.917969 14.433594 23.035156 14.730469 23.035156 C 14.730469 23.035156 15.71875 23.085938 16.046875 23.085938 C 16.402344 23.085938 17.464844 23.035156 17.464844 23.035156 C 17.765625 23.035156 18.054688 22.917969 18.273438 22.714844 C 18.492188 22.511719 18.628906 22.230469 18.65625 21.929688 L 19.398438 13.96875 C 19.066406 13.855469 18.730469 13.777344 18.351562 13.777344 C 17.699219 13.777344 17.167969 14.007812 16.558594 14.269531 Z M 16.558594 14.269531 "/>
<path style=" stroke:none;fill-rule:nonzero;fill:rgb(5.098039%,4.705882%,13.333334%);fill-opacity:1;" d="M 10.695312 11.199219 L 10.707031 11.207031 L 10.714844 11.210938 C 10.707031 11.207031 10.699219 11.199219 10.695312 11.199219 Z M 10.695312 11.199219 "/>
<path style=" stroke:none;fill-rule:nonzero;fill:rgb(5.098039%,4.705882%,13.333334%);fill-opacity:1;" d="M 22.617188 10.53125 L 22.515625 10 C 22.421875 9.519531 22.207031 9.070312 21.722656 8.894531 C 21.5625 8.839844 21.390625 8.816406 21.269531 8.699219 C 21.148438 8.585938 21.113281 8.410156 21.085938 8.246094 C 21.03125 7.941406 20.984375 7.640625 20.933594 7.335938 C 20.886719 7.082031 20.851562 6.785156 20.734375 6.550781 C 20.582031 6.230469 20.261719 6.042969 19.941406 5.917969 C 19.78125 5.855469 19.617188 5.808594 19.449219 5.765625 C 18.65625 5.554688 17.820312 5.476562 17.003906 5.433594 C 16.027344 5.378906 15.046875 5.394531 14.070312 5.480469 C 13.34375 5.546875 12.578125 5.628906 11.886719 5.882812 C 11.636719 5.972656 11.378906 6.082031 11.183594 6.28125 C 10.945312 6.523438 10.871094 6.898438 11.042969 7.199219 C 11.167969 7.410156 11.375 7.5625 11.589844 7.664062 C 11.878906 7.792969 12.175781 7.890625 12.484375 7.957031 C 13.335938 8.144531 14.21875 8.21875 15.089844 8.253906 C 16.058594 8.292969 17.023438 8.257812 17.984375 8.15625 C 18.226562 8.132812 18.460938 8.097656 18.699219 8.0625 C 18.980469 8.019531 19.15625 7.648438 19.074219 7.394531 C 18.976562 7.085938 18.710938 6.96875 18.414062 7.015625 C 18.367188 7.019531 18.324219 7.027344 18.28125 7.035156 L 18.246094 7.042969 C 18.148438 7.054688 18.046875 7.0625 17.945312 7.078125 C 17.738281 7.097656 17.527344 7.121094 17.316406 7.132812 C 16.84375 7.164062 16.371094 7.179688 15.902344 7.179688 C 15.4375 7.179688 14.972656 7.167969 14.511719 7.136719 C 14.296875 7.121094 14.085938 7.105469 13.878906 7.082031 C 13.785156 7.074219 13.6875 7.0625 13.59375 7.050781 L 13.503906 7.042969 L 13.484375 7.039062 L 13.390625 7.023438 C 13.195312 6.996094 13.003906 6.960938 12.8125 6.921875 C 12.792969 6.914062 12.777344 6.902344 12.765625 6.886719 C 12.75 6.875 12.746094 6.855469 12.746094 6.835938 C 12.746094 6.816406 12.75 6.796875 12.765625 6.78125 C 12.777344 6.765625 12.792969 6.753906 12.8125 6.75 L 12.816406 6.75 C 12.980469 6.714844 13.148438 6.683594 13.316406 6.65625 C 13.371094 6.652344 13.425781 6.640625 13.484375 6.628906 C 13.585938 6.625 13.691406 6.605469 13.796875 6.59375 C 14.699219 6.5 15.609375 6.46875 16.515625 6.496094 C 16.953125 6.511719 17.394531 6.535156 17.832031 6.582031 C 17.925781 6.589844 18.019531 6.601562 18.117188 6.613281 C 18.152344 6.617188 18.1875 6.621094 18.222656 6.628906 L 18.296875 6.636719 C 18.507812 6.667969 18.71875 6.707031 18.929688 6.753906 C 19.242188 6.824219 19.640625 6.84375 19.777344 7.1875 C 19.824219 7.296875 19.84375 7.417969 19.867188 7.53125 L 19.898438 7.679688 C 19.898438 7.683594 19.898438 7.683594 19.898438 7.683594 C 19.972656 8.03125 20.046875 8.375 20.117188 8.722656 C 20.125 8.742188 20.125 8.769531 20.121094 8.796875 C 20.113281 8.820312 20.105469 8.847656 20.089844 8.867188 C 20.074219 8.890625 20.054688 8.90625 20.035156 8.917969 C 20.011719 8.933594 19.988281 8.941406 19.960938 8.945312 L 19.867188 8.957031 C 19.730469 8.976562 19.589844 8.996094 19.449219 9.011719 C 19.167969 9.042969 18.894531 9.070312 18.617188 9.089844 C 18.0625 9.140625 17.511719 9.167969 16.953125 9.183594 C 16.671875 9.191406 16.386719 9.195312 16.105469 9.195312 C 14.980469 9.191406 13.859375 9.128906 12.742188 8.996094 C 12.621094 8.980469 12.5 8.96875 12.378906 8.953125 C 12.472656 8.964844 12.3125 8.941406 12.277344 8.9375 C 12.203125 8.925781 12.125 8.917969 12.046875 8.902344 C 11.789062 8.863281 11.53125 8.816406 11.273438 8.777344 C 10.964844 8.722656 10.664062 8.75 10.382812 8.902344 C 10.152344 9.03125 9.964844 9.226562 9.847656 9.464844 C 9.726562 9.714844 9.691406 9.992188 9.636719 10.261719 C 9.582031 10.535156 9.496094 10.832031 9.53125 11.109375 C 9.597656 11.710938 10.015625 12.199219 10.617188 12.3125 C 11.183594 12.414062 11.753906 12.496094 12.320312 12.566406 C 14.558594 12.84375 16.824219 12.878906 19.070312 12.667969 C 19.253906 12.648438 19.433594 12.628906 19.617188 12.609375 C 19.675781 12.605469 19.734375 12.609375 19.789062 12.628906 C 19.839844 12.648438 19.890625 12.683594 19.929688 12.722656 C 19.972656 12.761719 20 12.8125 20.019531 12.863281 C 20.039062 12.917969 20.046875 12.980469 20.042969 13.035156 L 19.984375 13.59375 C 19.871094 14.71875 19.753906 15.847656 19.640625 16.972656 C 19.523438 18.152344 19.402344 19.335938 19.28125 20.519531 C 19.246094 20.851562 19.210938 21.183594 19.175781 21.519531 C 19.144531 21.847656 19.140625 22.183594 19.078125 22.511719 C 18.980469 23.019531 18.640625 23.332031 18.140625 23.445312 C 17.683594 23.550781 17.214844 23.605469 16.746094 23.609375 C 16.226562 23.613281 15.707031 23.589844 15.1875 23.589844 C 14.632812 23.59375 13.953125 23.542969 13.523438 23.128906 C 13.148438 22.761719 13.09375 22.1875 13.046875 21.691406 C 12.976562 21.039062 12.90625 20.378906 12.84375 19.726562 L 12.464844 16.082031 L 12.222656 13.722656 C 12.21875 13.683594 12.210938 13.644531 12.207031 13.605469 C 12.179688 13.328125 11.980469 13.050781 11.671875 13.066406 C 11.40625 13.074219 11.101562 13.304688 11.132812 13.605469 L 11.3125 15.355469 L 11.6875 18.972656 C 11.792969 20 11.902344 21.027344 12.003906 22.054688 C 12.027344 22.253906 12.046875 22.449219 12.066406 22.644531 C 12.1875 23.722656 12.996094 24.300781 14.007812 24.464844 C 14.59375 24.558594 15.199219 24.582031 15.800781 24.589844 C 16.566406 24.597656 17.339844 24.632812 18.09375 24.492188 C 19.210938 24.285156 20.050781 23.53125 20.167969 22.367188 C 20.203125 22.027344 20.238281 21.691406 20.273438 21.355469 C 20.386719 20.242188 20.5 19.125 20.613281 18.011719 L 20.980469 14.367188 L 21.152344 12.699219 C 21.160156 12.617188 21.195312 12.539062 21.25 12.476562 C 21.308594 12.414062 21.378906 12.375 21.460938 12.359375 C 21.78125 12.292969 22.085938 12.1875 22.3125 11.941406 C 22.675781 11.550781 22.746094 11.042969 22.617188 10.53125 Z M 10.601562 10.890625 C 10.605469 10.886719 10.597656 10.929688 10.59375 10.949219 C 10.589844 10.921875 10.59375 10.894531 10.601562 10.890625 Z M 10.632812 11.132812 C 10.632812 11.132812 10.644531 11.144531 10.648438 11.15625 C 10.640625 11.144531 10.628906 11.136719 10.632812 11.132812 Z M 10.664062 11.175781 C 10.675781 11.191406 10.679688 11.203125 10.664062 11.175781 Z M 10.722656 11.222656 L 10.726562 11.222656 C 10.726562 11.226562 10.726562 11.226562 10.730469 11.230469 C 10.726562 11.226562 10.726562 11.226562 10.722656 11.222656 Z M 21.445312 11.148438 C 21.332031 11.261719 21.160156 11.3125 20.988281 11.335938 C 19.074219 11.625 17.128906 11.769531 15.191406 11.703125 C 13.804688 11.65625 12.429688 11.5 11.058594 11.304688 C 10.925781 11.285156 10.777344 11.261719 10.683594 11.160156 C 10.511719 10.972656 10.597656 10.59375 10.644531 10.363281 C 10.683594 10.15625 10.761719 9.878906 11.007812 9.851562 C 11.394531 9.804688 11.839844 9.96875 12.222656 10.027344 C 12.675781 10.09375 13.136719 10.152344 13.597656 10.195312 C 15.566406 10.375 17.570312 10.347656 19.527344 10.082031 C 19.882812 10.03125 20.242188 9.976562 20.597656 9.910156 C 20.910156 9.855469 21.261719 9.75 21.453125 10.078125 C 21.582031 10.300781 21.597656 10.605469 21.578125 10.859375 C 21.574219 10.96875 21.523438 11.074219 21.445312 11.148438 Z M 21.445312 11.148438 "/>
<path style=" stroke:none;fill-rule:evenodd;fill:rgb(5.098039%,4.705882%,13.725491%);fill-opacity:1;" d="M 33.070312 16.515625 C 32.960938 16.730469 32.804688 16.921875 32.609375 17.082031 C 32.414062 17.238281 32.1875 17.371094 31.925781 17.46875 C 31.664062 17.566406 31.402344 17.636719 31.136719 17.667969 C 30.875 17.707031 30.613281 17.703125 30.367188 17.660156 C 30.121094 17.621094 29.90625 17.535156 29.730469 17.410156 L 29.929688 15.363281 C 30.109375 15.300781 30.335938 15.234375 30.609375 15.167969 C 30.882812 15.105469 31.164062 15.054688 31.453125 15.027344 C 31.742188 15 32.015625 15.003906 32.273438 15.039062 C 32.53125 15.070312 32.738281 15.15625 32.886719 15.285156 C 32.964844 15.363281 33.035156 15.441406 33.089844 15.53125 C 33.144531 15.613281 33.179688 15.707031 33.191406 15.800781 C 33.222656 16.066406 33.183594 16.300781 33.070312 16.515625 Z M 30.226562 12.148438 C 30.359375 12.066406 30.515625 11.996094 30.699219 11.933594 C 30.878906 11.871094 31.070312 11.824219 31.261719 11.800781 C 31.457031 11.777344 31.644531 11.773438 31.828125 11.789062 C 32.007812 11.808594 32.171875 11.863281 32.308594 11.945312 C 32.453125 12.03125 32.554688 12.152344 32.625 12.3125 C 32.691406 12.472656 32.710938 12.671875 32.679688 12.917969 C 32.65625 13.109375 32.578125 13.273438 32.453125 13.410156 C 32.324219 13.542969 32.167969 13.65625 31.988281 13.742188 C 31.800781 13.835938 31.609375 13.90625 31.402344 13.960938 C 31.195312 14.011719 31 14.050781 30.808594 14.078125 C 30.621094 14.101562 30.457031 14.117188 30.316406 14.125 C 30.175781 14.128906 30.085938 14.132812 30.042969 14.132812 Z M 34.078125 15.191406 C 33.980469 14.972656 33.847656 14.78125 33.679688 14.617188 C 33.511719 14.449219 33.308594 14.328125 33.078125 14.253906 C 33.179688 14.171875 33.277344 14.046875 33.375 13.871094 C 33.472656 13.699219 33.550781 13.503906 33.621094 13.300781 C 33.691406 13.09375 33.738281 12.886719 33.761719 12.675781 C 33.785156 12.46875 33.773438 12.289062 33.734375 12.136719 C 33.625 11.765625 33.460938 11.472656 33.234375 11.257812 C 33.007812 11.042969 32.742188 10.898438 32.441406 10.816406 C 32.140625 10.734375 31.808594 10.71875 31.441406 10.765625 C 31.082031 10.8125 30.707031 10.90625 30.332031 11.042969 C 30.332031 11.011719 30.332031 10.980469 30.339844 10.945312 C 30.347656 10.910156 30.347656 10.875 30.347656 10.835938 C 30.347656 10.742188 30.300781 10.660156 30.207031 10.59375 C 30.117188 10.523438 30.007812 10.484375 29.886719 10.472656 C 29.765625 10.457031 29.648438 10.484375 29.53125 10.550781 C 29.417969 10.613281 29.335938 10.734375 29.296875 10.910156 C 29.246094 11.472656 29.195312 12.058594 29.144531 12.664062 C 29.09375 13.269531 29.042969 13.878906 28.988281 14.5 C 28.929688 15.117188 28.875 15.730469 28.820312 16.339844 C 28.765625 16.949219 28.707031 17.53125 28.652344 18.097656 C 28.671875 18.265625 28.714844 18.394531 28.789062 18.488281 C 28.863281 18.582031 28.953125 18.640625 29.050781 18.660156 C 29.152344 18.675781 29.257812 18.660156 29.367188 18.605469 C 29.472656 18.554688 29.566406 18.460938 29.648438 18.332031 C 29.898438 18.464844 30.179688 18.558594 30.488281 18.597656 C 30.800781 18.636719 31.113281 18.636719 31.4375 18.597656 C 31.753906 18.558594 32.070312 18.480469 32.382812 18.367188 C 32.691406 18.253906 32.976562 18.113281 33.230469 17.945312 C 33.484375 17.777344 33.699219 17.585938 33.871094 17.371094 C 34.046875 17.15625 34.164062 16.921875 34.21875 16.671875 C 34.273438 16.417969 34.289062 16.160156 34.265625 15.90625 C 34.242188 15.648438 34.175781 15.410156 34.078125 15.191406 Z M 34.078125 15.191406 "/>
<path style=" stroke:none;fill-rule:evenodd;fill:rgb(5.098039%,4.705882%,13.725491%);fill-opacity:1;" d="M 43.175781 20.136719 C 43.144531 20.34375 43.09375 20.558594 43.03125 20.789062 C 42.96875 21.015625 42.898438 21.222656 42.8125 21.414062 C 42.730469 21.597656 42.636719 21.75 42.53125 21.863281 C 42.429688 21.980469 42.320312 22.03125 42.203125 22.011719 C 42.109375 22 42.050781 21.941406 42.023438 21.832031 C 42 21.726562 42 21.59375 42.023438 21.4375 C 42.050781 21.28125 42.097656 21.105469 42.167969 20.910156 C 42.242188 20.714844 42.328125 20.519531 42.429688 20.324219 C 42.53125 20.128906 42.648438 19.945312 42.78125 19.769531 C 42.910156 19.589844 43.046875 19.441406 43.1875 19.324219 C 43.222656 19.359375 43.234375 19.453125 43.230469 19.601562 C 43.226562 19.753906 43.210938 19.933594 43.175781 20.136719 Z M 46.335938 16.070312 C 46.253906 15.980469 46.152344 15.925781 46.027344 15.914062 C 45.910156 15.902344 45.785156 15.96875 45.660156 16.121094 C 45.578125 16.269531 45.480469 16.414062 45.351562 16.550781 C 45.230469 16.6875 45.101562 16.8125 44.96875 16.925781 C 44.832031 17.039062 44.707031 17.136719 44.582031 17.214844 C 44.464844 17.292969 44.371094 17.355469 44.296875 17.394531 C 44.277344 17.195312 44.257812 16.980469 44.257812 16.746094 C 44.253906 16.515625 44.257812 16.28125 44.273438 16.042969 C 44.289062 15.707031 44.332031 15.367188 44.390625 15.023438 C 44.445312 14.679688 44.53125 14.34375 44.644531 14.011719 C 44.644531 13.839844 44.605469 13.695312 44.523438 13.582031 C 44.445312 13.476562 44.34375 13.410156 44.230469 13.378906 C 44.113281 13.351562 43.996094 13.367188 43.875 13.425781 C 43.753906 13.488281 43.652344 13.59375 43.5625 13.75 C 43.488281 13.957031 43.402344 14.1875 43.304688 14.441406 C 43.210938 14.699219 43.101562 14.960938 42.980469 15.222656 C 42.859375 15.492188 42.722656 15.75 42.574219 15.996094 C 42.425781 16.246094 42.261719 16.46875 42.085938 16.664062 C 41.90625 16.855469 41.714844 17.007812 41.507812 17.117188 C 41.300781 17.226562 41.074219 17.277344 40.832031 17.261719 C 40.71875 17.230469 40.636719 17.144531 40.585938 17.007812 C 40.539062 16.871094 40.511719 16.699219 40.5 16.496094 C 40.492188 16.289062 40.5 16.0625 40.527344 15.8125 C 40.554688 15.570312 40.59375 15.324219 40.640625 15.078125 C 40.683594 14.835938 40.738281 14.605469 40.792969 14.386719 C 40.851562 14.167969 40.902344 13.984375 40.953125 13.835938 C 41.027344 13.652344 41.027344 13.503906 40.953125 13.378906 C 40.875 13.257812 40.777344 13.175781 40.644531 13.136719 C 40.511719 13.097656 40.378906 13.097656 40.234375 13.140625 C 40.089844 13.183594 39.988281 13.28125 39.925781 13.429688 C 39.820312 13.6875 39.722656 13.972656 39.636719 14.292969 C 39.550781 14.613281 39.480469 14.941406 39.425781 15.28125 C 39.375 15.621094 39.34375 15.957031 39.339844 16.292969 C 39.339844 16.316406 39.339844 16.335938 39.339844 16.355469 C 39.203125 16.71875 39.074219 16.996094 38.949219 17.175781 C 38.792969 17.414062 38.613281 17.519531 38.414062 17.488281 C 38.328125 17.449219 38.273438 17.363281 38.242188 17.222656 C 38.214844 17.085938 38.207031 16.917969 38.214844 16.71875 C 38.222656 16.519531 38.25 16.292969 38.285156 16.039062 C 38.324219 15.789062 38.367188 15.523438 38.421875 15.253906 C 38.480469 14.980469 38.539062 14.707031 38.601562 14.433594 C 38.664062 14.160156 38.722656 13.898438 38.769531 13.65625 C 38.761719 13.4375 38.699219 13.269531 38.578125 13.152344 C 38.457031 13.039062 38.289062 12.996094 38.070312 13.019531 C 37.921875 13.082031 37.8125 13.164062 37.738281 13.261719 C 37.667969 13.363281 37.613281 13.488281 37.566406 13.644531 C 37.539062 13.726562 37.503906 13.890625 37.457031 14.132812 C 37.40625 14.378906 37.339844 14.660156 37.261719 14.972656 C 37.183594 15.285156 37.09375 15.613281 36.988281 15.960938 C 36.882812 16.300781 36.765625 16.613281 36.636719 16.890625 C 36.503906 17.171875 36.359375 17.394531 36.203125 17.5625 C 36.050781 17.730469 35.882812 17.800781 35.703125 17.765625 C 35.601562 17.75 35.539062 17.644531 35.511719 17.457031 C 35.484375 17.273438 35.476562 17.042969 35.496094 16.765625 C 35.515625 16.492188 35.554688 16.1875 35.609375 15.863281 C 35.664062 15.535156 35.722656 15.222656 35.78125 14.929688 C 35.839844 14.636719 35.894531 14.378906 35.945312 14.152344 C 35.996094 13.929688 36.03125 13.777344 36.046875 13.699219 C 36.046875 13.523438 36.007812 13.375 35.925781 13.269531 C 35.84375 13.15625 35.75 13.089844 35.632812 13.058594 C 35.515625 13.035156 35.398438 13.050781 35.277344 13.109375 C 35.15625 13.167969 35.054688 13.273438 34.964844 13.429688 C 34.933594 13.601562 34.894531 13.796875 34.84375 14.015625 C 34.792969 14.238281 34.746094 14.464844 34.699219 14.699219 C 34.652344 14.933594 34.609375 15.164062 34.566406 15.386719 C 34.527344 15.613281 34.5 15.808594 34.480469 15.980469 C 34.46875 16.109375 34.453125 16.269531 34.4375 16.460938 C 34.421875 16.652344 34.414062 16.851562 34.414062 17.0625 C 34.414062 17.277344 34.433594 17.488281 34.460938 17.699219 C 34.492188 17.90625 34.546875 18.097656 34.628906 18.273438 C 34.710938 18.449219 34.824219 18.589844 34.96875 18.703125 C 35.113281 18.816406 35.300781 18.878906 35.523438 18.894531 C 35.753906 18.902344 35.957031 18.886719 36.128906 18.839844 C 36.296875 18.792969 36.453125 18.722656 36.59375 18.621094 C 36.730469 18.519531 36.859375 18.402344 36.972656 18.265625 C 37.089844 18.128906 37.203125 17.980469 37.3125 17.816406 C 37.421875 18.054688 37.558594 18.234375 37.726562 18.367188 C 37.894531 18.5 38.070312 18.578125 38.253906 18.601562 C 38.441406 18.625 38.632812 18.601562 38.824219 18.523438 C 39.019531 18.445312 39.195312 18.308594 39.347656 18.125 C 39.449219 18.007812 39.546875 17.878906 39.636719 17.734375 C 39.675781 17.800781 39.71875 17.867188 39.761719 17.925781 C 39.914062 18.128906 40.121094 18.265625 40.382812 18.339844 C 40.664062 18.414062 40.9375 18.425781 41.203125 18.375 C 41.472656 18.328125 41.726562 18.234375 41.96875 18.105469 C 42.210938 17.976562 42.433594 17.816406 42.644531 17.632812 C 42.851562 17.449219 43.035156 17.253906 43.1875 17.058594 C 43.183594 17.199219 43.179688 17.332031 43.179688 17.464844 C 43.179688 17.589844 43.179688 17.730469 43.171875 17.878906 C 42.863281 18.097656 42.566406 18.363281 42.289062 18.667969 C 42.015625 18.972656 41.773438 19.300781 41.5625 19.644531 C 41.355469 19.992188 41.191406 20.34375 41.074219 20.699219 C 40.957031 21.054688 40.898438 21.386719 40.902344 21.695312 C 40.90625 22.003906 40.976562 22.277344 41.117188 22.507812 C 41.265625 22.738281 41.496094 22.902344 41.820312 23.003906 C 42.152344 23.109375 42.449219 23.113281 42.707031 23.015625 C 42.960938 22.914062 43.183594 22.746094 43.375 22.515625 C 43.5625 22.285156 43.714844 22.003906 43.839844 21.679688 C 43.957031 21.351562 44.054688 21.007812 44.125 20.652344 C 44.199219 20.296875 44.242188 19.949219 44.261719 19.601562 C 44.28125 19.261719 44.28125 18.957031 44.261719 18.683594 C 44.796875 18.460938 45.238281 18.175781 45.574219 17.832031 C 45.917969 17.488281 46.199219 17.128906 46.425781 16.746094 C 46.496094 16.652344 46.515625 16.539062 46.496094 16.410156 C 46.476562 16.277344 46.421875 16.164062 46.335938 16.070312 Z M 46.335938 16.070312 "/>
<path style=" stroke:none;fill-rule:evenodd;fill:rgb(5.098039%,4.705882%,13.725491%);fill-opacity:1;" d="M 58.101562 15.472656 C 58.117188 15.328125 58.148438 15.179688 58.183594 15.019531 C 58.222656 14.859375 58.269531 14.703125 58.324219 14.554688 C 58.378906 14.402344 58.445312 14.277344 58.519531 14.167969 C 58.59375 14.054688 58.675781 13.976562 58.757812 13.933594 C 58.84375 13.886719 58.925781 13.890625 59.011719 13.945312 C 59.105469 14.003906 59.164062 14.121094 59.1875 14.304688 C 59.207031 14.480469 59.1875 14.675781 59.121094 14.882812 C 59.054688 15.089844 58.9375 15.285156 58.769531 15.460938 C 58.601562 15.644531 58.375 15.765625 58.089844 15.820312 C 58.078125 15.730469 58.082031 15.617188 58.101562 15.472656 Z M 61.332031 15.855469 C 61.230469 15.828125 61.132812 15.824219 61.039062 15.847656 C 60.945312 15.871094 60.886719 15.9375 60.859375 16.042969 C 60.8125 16.242188 60.730469 16.449219 60.621094 16.65625 C 60.515625 16.867188 60.378906 17.066406 60.222656 17.253906 C 60.066406 17.441406 59.882812 17.605469 59.6875 17.75 C 59.484375 17.894531 59.277344 17.996094 59.0625 18.058594 C 58.84375 18.128906 58.664062 18.136719 58.519531 18.082031 C 58.375 18.03125 58.261719 17.941406 58.179688 17.808594 C 58.09375 17.683594 58.035156 17.527344 57.996094 17.347656 C 57.960938 17.164062 57.941406 16.980469 57.933594 16.785156 C 58.285156 16.808594 58.601562 16.746094 58.878906 16.589844 C 59.15625 16.4375 59.390625 16.238281 59.582031 15.984375 C 59.777344 15.730469 59.921875 15.445312 60.023438 15.128906 C 60.121094 14.816406 60.179688 14.503906 60.1875 14.191406 C 60.195312 13.894531 60.152344 13.648438 60.058594 13.445312 C 59.964844 13.242188 59.839844 13.085938 59.679688 12.972656 C 59.519531 12.863281 59.339844 12.792969 59.136719 12.777344 C 58.929688 12.757812 58.722656 12.785156 58.511719 12.863281 C 58.257812 12.945312 58.039062 13.089844 57.863281 13.285156 C 57.683594 13.484375 57.539062 13.710938 57.417969 13.972656 C 57.300781 14.230469 57.207031 14.507812 57.140625 14.808594 C 57.074219 15.105469 57.019531 15.402344 56.992188 15.691406 C 56.960938 15.953125 56.945312 16.203125 56.941406 16.445312 C 56.929688 16.472656 56.917969 16.503906 56.902344 16.535156 C 56.804688 16.757812 56.695312 16.976562 56.566406 17.1875 C 56.4375 17.398438 56.296875 17.578125 56.140625 17.722656 C 55.984375 17.863281 55.824219 17.914062 55.65625 17.871094 C 55.558594 17.84375 55.503906 17.730469 55.492188 17.527344 C 55.484375 17.316406 55.492188 17.0625 55.527344 16.757812 C 55.558594 16.453125 55.59375 16.121094 55.632812 15.765625 C 55.675781 15.40625 55.695312 15.066406 55.695312 14.742188 C 55.695312 14.464844 55.644531 14.191406 55.535156 13.933594 C 55.429688 13.671875 55.285156 13.457031 55.101562 13.285156 C 54.917969 13.113281 54.703125 13 54.460938 12.941406 C 54.222656 12.886719 53.960938 12.925781 53.679688 13.058594 C 53.402344 13.1875 53.179688 13.371094 53.011719 13.609375 C 52.847656 13.847656 52.699219 14.09375 52.558594 14.359375 C 52.511719 14.160156 52.4375 13.972656 52.34375 13.800781 C 52.246094 13.628906 52.125 13.480469 51.988281 13.351562 C 51.847656 13.222656 51.691406 13.125 51.519531 13.054688 C 51.34375 12.980469 51.160156 12.941406 50.964844 12.941406 C 50.78125 12.941406 50.609375 12.980469 50.449219 13.054688 C 50.292969 13.125 50.148438 13.214844 50.015625 13.328125 C 49.886719 13.441406 49.769531 13.566406 49.660156 13.707031 C 49.554688 13.847656 49.460938 13.988281 49.378906 14.125 C 49.371094 13.960938 49.355469 13.820312 49.339844 13.699219 C 49.324219 13.578125 49.296875 13.472656 49.257812 13.386719 C 49.214844 13.304688 49.15625 13.242188 49.082031 13.195312 C 49.007812 13.152344 48.902344 13.132812 48.765625 13.132812 C 48.699219 13.132812 48.628906 13.144531 48.5625 13.175781 C 48.492188 13.203125 48.433594 13.242188 48.378906 13.292969 C 48.324219 13.339844 48.285156 13.402344 48.257812 13.472656 C 48.230469 13.542969 48.222656 13.628906 48.234375 13.722656 C 48.242188 13.789062 48.257812 13.875 48.285156 13.972656 C 48.3125 14.066406 48.34375 14.191406 48.363281 14.347656 C 48.390625 14.503906 48.410156 14.695312 48.425781 14.914062 C 48.441406 15.136719 48.445312 15.410156 48.4375 15.730469 C 48.433594 16.050781 48.410156 16.429688 48.371094 16.859375 C 48.328125 17.292969 48.265625 17.789062 48.179688 18.359375 C 48.167969 18.488281 48.214844 18.597656 48.328125 18.679688 C 48.4375 18.757812 48.566406 18.804688 48.710938 18.816406 C 48.851562 18.828125 48.988281 18.804688 49.113281 18.742188 C 49.246094 18.679688 49.316406 18.570312 49.335938 18.414062 C 49.355469 18.121094 49.390625 17.808594 49.441406 17.476562 C 49.492188 17.148438 49.5625 16.820312 49.640625 16.496094 C 49.714844 16.167969 49.804688 15.859375 49.902344 15.566406 C 50.003906 15.273438 50.113281 15.011719 50.234375 14.789062 C 50.355469 14.5625 50.484375 14.386719 50.613281 14.25 C 50.742188 14.117188 50.882812 14.050781 51.023438 14.050781 C 51.199219 14.050781 51.332031 14.128906 51.429688 14.285156 C 51.523438 14.445312 51.59375 14.652344 51.636719 14.902344 C 51.671875 15.152344 51.691406 15.425781 51.691406 15.722656 C 51.6875 16.019531 51.671875 16.304688 51.652344 16.578125 C 51.632812 16.851562 51.605469 17.097656 51.578125 17.316406 C 51.550781 17.527344 51.527344 17.679688 51.519531 17.757812 C 51.519531 17.902344 51.570312 18.019531 51.679688 18.101562 C 51.789062 18.183594 51.910156 18.234375 52.042969 18.253906 C 52.179688 18.265625 52.304688 18.242188 52.421875 18.175781 C 52.539062 18.109375 52.609375 17.996094 52.628906 17.839844 C 52.691406 17.394531 52.773438 16.941406 52.882812 16.492188 C 52.992188 16.039062 53.117188 15.632812 53.253906 15.273438 C 53.394531 14.910156 53.550781 14.621094 53.722656 14.390625 C 53.894531 14.164062 54.074219 14.050781 54.269531 14.050781 C 54.367188 14.050781 54.441406 14.117188 54.496094 14.253906 C 54.550781 14.394531 54.574219 14.582031 54.574219 14.816406 C 54.574219 14.992188 54.5625 15.171875 54.535156 15.355469 C 54.503906 15.539062 54.472656 15.730469 54.4375 15.925781 C 54.398438 16.121094 54.363281 16.324219 54.339844 16.535156 C 54.308594 16.738281 54.296875 16.953125 54.296875 17.175781 C 54.296875 17.332031 54.308594 17.515625 54.34375 17.722656 C 54.375 17.925781 54.433594 18.121094 54.519531 18.308594 C 54.609375 18.488281 54.726562 18.644531 54.878906 18.777344 C 55.03125 18.902344 55.226562 18.96875 55.460938 18.96875 C 55.8125 18.96875 56.128906 18.890625 56.402344 18.738281 C 56.679688 18.582031 56.910156 18.386719 57.109375 18.136719 C 57.117188 18.125 57.128906 18.113281 57.136719 18.097656 C 57.148438 18.136719 57.167969 18.175781 57.183594 18.210938 C 57.316406 18.484375 57.496094 18.695312 57.726562 18.84375 C 57.957031 18.996094 58.226562 19.078125 58.539062 19.09375 C 58.847656 19.109375 59.1875 19.050781 59.554688 18.917969 C 59.828125 18.820312 60.066406 18.695312 60.269531 18.542969 C 60.46875 18.394531 60.652344 18.214844 60.816406 17.996094 C 60.976562 17.785156 61.121094 17.53125 61.253906 17.253906 C 61.390625 16.972656 61.527344 16.652344 61.664062 16.289062 C 61.6875 16.1875 61.664062 16.101562 61.589844 16.023438 C 61.519531 15.945312 61.433594 15.886719 61.332031 15.855469 Z M 61.332031 15.855469 "/>
<path style=" stroke:none;fill-rule:evenodd;fill:rgb(5.098039%,4.705882%,13.725491%);fill-opacity:1;" d="M 66.398438 14.8125 C 66.371094 14.996094 66.328125 15.199219 66.273438 15.417969 C 66.222656 15.644531 66.152344 15.871094 66.070312 16.109375 C 65.992188 16.347656 65.894531 16.5625 65.773438 16.75 C 65.65625 16.941406 65.523438 17.09375 65.371094 17.207031 C 65.21875 17.316406 65.039062 17.367188 64.84375 17.347656 C 64.742188 17.332031 64.664062 17.265625 64.613281 17.136719 C 64.5625 17.015625 64.53125 16.855469 64.527344 16.664062 C 64.527344 16.46875 64.546875 16.257812 64.582031 16.027344 C 64.621094 15.792969 64.675781 15.570312 64.753906 15.34375 C 64.828125 15.125 64.925781 14.917969 65.035156 14.734375 C 65.148438 14.542969 65.28125 14.402344 65.425781 14.296875 C 65.570312 14.191406 65.730469 14.148438 65.902344 14.152344 C 66.078125 14.15625 66.265625 14.246094 66.464844 14.414062 C 66.449219 14.496094 66.429688 14.628906 66.398438 14.8125 Z M 69.714844 15.527344 C 69.617188 15.480469 69.515625 15.46875 69.417969 15.496094 C 69.3125 15.523438 69.238281 15.617188 69.195312 15.78125 C 69.171875 15.957031 69.117188 16.160156 69.027344 16.398438 C 68.941406 16.636719 68.835938 16.863281 68.707031 17.074219 C 68.578125 17.289062 68.433594 17.464844 68.269531 17.605469 C 68.105469 17.746094 67.929688 17.808594 67.742188 17.796875 C 67.585938 17.785156 67.480469 17.707031 67.414062 17.558594 C 67.351562 17.410156 67.320312 17.226562 67.316406 17.003906 C 67.3125 16.785156 67.335938 16.535156 67.382812 16.257812 C 67.429688 15.976562 67.484375 15.699219 67.550781 15.425781 C 67.613281 15.148438 67.683594 14.886719 67.75 14.636719 C 67.820312 14.382812 67.878906 14.167969 67.917969 13.996094 C 67.96875 13.839844 67.953125 13.703125 67.875 13.59375 C 67.792969 13.488281 67.691406 13.410156 67.570312 13.359375 C 67.445312 13.3125 67.324219 13.300781 67.199219 13.324219 C 67.078125 13.347656 66.996094 13.410156 66.957031 13.527344 C 66.59375 13.207031 66.242188 13.035156 65.902344 13.007812 C 65.5625 12.984375 65.25 13.058594 64.960938 13.234375 C 64.679688 13.410156 64.425781 13.660156 64.203125 13.996094 C 63.980469 14.324219 63.804688 14.683594 63.667969 15.074219 C 63.53125 15.464844 63.445312 15.863281 63.410156 16.269531 C 63.378906 16.675781 63.402344 17.042969 63.492188 17.378906 C 63.578125 17.710938 63.730469 17.984375 63.953125 18.199219 C 64.171875 18.410156 64.472656 18.515625 64.851562 18.515625 C 65.019531 18.515625 65.183594 18.484375 65.335938 18.414062 C 65.492188 18.347656 65.636719 18.265625 65.765625 18.171875 C 65.898438 18.074219 66.011719 17.980469 66.109375 17.875 C 66.210938 17.773438 66.289062 17.683594 66.34375 17.617188 C 66.386719 17.839844 66.457031 18.035156 66.558594 18.191406 C 66.65625 18.347656 66.769531 18.472656 66.898438 18.574219 C 67.027344 18.671875 67.160156 18.746094 67.296875 18.792969 C 67.441406 18.839844 67.574219 18.863281 67.707031 18.863281 C 67.996094 18.863281 68.273438 18.761719 68.523438 18.566406 C 68.78125 18.363281 69.007812 18.117188 69.210938 17.828125 C 69.414062 17.539062 69.578125 17.234375 69.707031 16.910156 C 69.839844 16.589844 69.929688 16.300781 69.96875 16.054688 C 70.015625 15.960938 70.003906 15.863281 69.949219 15.757812 C 69.890625 15.652344 69.8125 15.578125 69.714844 15.527344 Z M 69.714844 15.527344 "/>
<path style=" stroke:none;fill-rule:evenodd;fill:rgb(5.098039%,4.705882%,13.725491%);fill-opacity:1;" d="M 86.5 20.699219 C 86.445312 20.910156 86.363281 21.09375 86.25 21.238281 C 86.140625 21.386719 86.003906 21.460938 85.832031 21.46875 C 85.726562 21.472656 85.644531 21.417969 85.589844 21.300781 C 85.53125 21.183594 85.496094 21.027344 85.476562 20.839844 C 85.453125 20.652344 85.441406 20.441406 85.445312 20.210938 C 85.449219 19.984375 85.457031 19.753906 85.476562 19.527344 C 85.488281 19.304688 85.507812 19.09375 85.53125 18.902344 C 85.550781 18.707031 85.570312 18.558594 85.582031 18.453125 C 85.792969 18.476562 85.96875 18.566406 86.109375 18.726562 C 86.246094 18.886719 86.355469 19.074219 86.429688 19.292969 C 86.503906 19.515625 86.546875 19.75 86.5625 20.003906 C 86.570312 20.253906 86.550781 20.488281 86.5 20.699219 Z M 83.121094 20.699219 C 83.070312 20.910156 82.988281 21.09375 82.878906 21.238281 C 82.765625 21.386719 82.625 21.460938 82.457031 21.46875 C 82.351562 21.472656 82.273438 21.417969 82.214844 21.300781 C 82.160156 21.183594 82.121094 21.027344 82.097656 20.839844 C 82.074219 20.652344 82.070312 20.441406 82.070312 20.210938 C 82.070312 19.984375 82.082031 19.753906 82.097656 19.527344 C 82.113281 19.304688 82.132812 19.09375 82.152344 18.902344 C 82.175781 18.707031 82.191406 18.558594 82.203125 18.453125 C 82.417969 18.476562 82.59375 18.566406 82.730469 18.726562 C 82.871094 18.886719 82.980469 19.074219 83.054688 19.292969 C 83.128906 19.515625 83.171875 19.75 83.183594 20.003906 C 83.199219 20.253906 83.179688 20.488281 83.121094 20.699219 Z M 79.660156 15.378906 C 79.652344 15.53125 79.640625 15.660156 79.617188 15.777344 C 79.597656 15.894531 79.566406 15.964844 79.527344 16 C 79.460938 15.960938 79.378906 15.863281 79.277344 15.707031 C 79.175781 15.550781 79.097656 15.375 79.042969 15.179688 C 78.988281 14.980469 78.96875 14.789062 78.992188 14.597656 C 79.015625 14.40625 79.113281 14.257812 79.285156 14.152344 C 79.355469 14.113281 79.414062 14.128906 79.464844 14.195312 C 79.511719 14.261719 79.554688 14.355469 79.585938 14.480469 C 79.617188 14.605469 79.640625 14.75 79.648438 14.910156 C 79.660156 15.074219 79.664062 15.230469 79.660156 15.378906 Z M 78.832031 17.25 C 78.738281 17.351562 78.628906 17.441406 78.511719 17.515625 C 78.394531 17.589844 78.273438 17.644531 78.148438 17.683594 C 78.023438 17.722656 77.910156 17.730469 77.816406 17.710938 C 77.53125 17.65625 77.320312 17.53125 77.171875 17.347656 C 77.023438 17.160156 76.925781 16.941406 76.886719 16.6875 C 76.84375 16.433594 76.851562 16.160156 76.898438 15.875 C 76.949219 15.589844 77.03125 15.324219 77.152344 15.074219 C 77.269531 14.828125 77.414062 14.617188 77.582031 14.441406 C 77.746094 14.261719 77.929688 14.152344 78.132812 14.105469 C 78.058594 14.425781 78.03125 14.753906 78.058594 15.09375 C 78.078125 15.433594 78.160156 15.753906 78.296875 16.054688 C 78.382812 16.238281 78.492188 16.398438 78.609375 16.550781 C 78.734375 16.699219 78.878906 16.828125 79.054688 16.933594 C 79.003906 17.042969 78.929688 17.144531 78.832031 17.25 Z M 89.152344 15.472656 C 89.171875 15.328125 89.199219 15.179688 89.238281 15.019531 C 89.273438 14.859375 89.320312 14.707031 89.375 14.554688 C 89.429688 14.402344 89.5 14.277344 89.574219 14.167969 C 89.648438 14.058594 89.726562 13.976562 89.808594 13.933594 C 89.894531 13.886719 89.976562 13.890625 90.066406 13.945312 C 90.160156 14.003906 90.21875 14.121094 90.238281 14.304688 C 90.257812 14.480469 90.238281 14.675781 90.175781 14.882812 C 90.105469 15.089844 89.992188 15.285156 89.824219 15.464844 C 89.65625 15.644531 89.429688 15.765625 89.144531 15.820312 C 89.128906 15.730469 89.132812 15.617188 89.152344 15.472656 Z M 92.910156 15.472656 C 92.929688 15.328125 92.957031 15.179688 92.996094 15.019531 C 93.03125 14.859375 93.078125 14.707031 93.136719 14.554688 C 93.191406 14.402344 93.253906 14.277344 93.328125 14.167969 C 93.402344 14.058594 93.484375 13.976562 93.570312 13.933594 C 93.652344 13.886719 93.738281 13.890625 93.824219 13.945312 C 93.917969 14.003906 93.976562 14.121094 93.996094 14.304688 C 94.019531 14.480469 93.996094 14.675781 93.929688 14.882812 C 93.867188 15.089844 93.75 15.285156 93.582031 15.464844 C 93.414062 15.644531 93.1875 15.765625 92.902344 15.820312 C 92.890625 15.730469 92.890625 15.617188 92.910156 15.472656 Z M 96.402344 16.023438 C 96.332031 15.945312 96.242188 15.886719 96.140625 15.855469 C 96.039062 15.828125 95.941406 15.824219 95.847656 15.847656 C 95.753906 15.871094 95.695312 15.9375 95.671875 16.042969 C 95.621094 16.242188 95.542969 16.449219 95.433594 16.65625 C 95.324219 16.867188 95.1875 17.066406 95.03125 17.253906 C 94.871094 17.441406 94.695312 17.605469 94.496094 17.75 C 94.296875 17.894531 94.089844 17.996094 93.871094 18.058594 C 93.652344 18.128906 93.472656 18.136719 93.328125 18.082031 C 93.1875 18.03125 93.074219 17.941406 92.988281 17.808594 C 92.90625 17.683594 92.84375 17.527344 92.808594 17.347656 C 92.769531 17.164062 92.75 16.980469 92.742188 16.785156 C 93.097656 16.808594 93.414062 16.746094 93.6875 16.589844 C 93.964844 16.4375 94.199219 16.238281 94.394531 15.984375 C 94.585938 15.730469 94.734375 15.445312 94.828125 15.128906 C 94.929688 14.816406 94.984375 14.503906 95 14.191406 C 95.003906 13.894531 94.960938 13.648438 94.867188 13.445312 C 94.773438 13.242188 94.648438 13.085938 94.492188 12.972656 C 94.332031 12.863281 94.152344 12.792969 93.945312 12.777344 C 93.738281 12.757812 93.53125 12.785156 93.320312 12.863281 C 93.066406 12.949219 92.851562 13.089844 92.671875 13.289062 C 92.496094 13.484375 92.347656 13.710938 92.230469 13.972656 C 92.113281 14.230469 92.019531 14.507812 91.949219 14.808594 C 91.878906 15.105469 91.832031 15.402344 91.800781 15.691406 C 91.769531 15.976562 91.753906 16.242188 91.75 16.503906 C 91.726562 16.554688 91.703125 16.605469 91.675781 16.65625 C 91.566406 16.867188 91.433594 17.066406 91.273438 17.253906 C 91.117188 17.441406 90.933594 17.605469 90.738281 17.75 C 90.539062 17.894531 90.332031 17.996094 90.113281 18.058594 C 89.894531 18.128906 89.714844 18.136719 89.574219 18.082031 C 89.429688 18.03125 89.316406 17.941406 89.230469 17.808594 C 89.144531 17.683594 89.089844 17.527344 89.050781 17.347656 C 89.015625 17.164062 88.992188 16.980469 88.984375 16.785156 C 89.339844 16.808594 89.652344 16.746094 89.933594 16.589844 C 90.207031 16.4375 90.445312 16.238281 90.632812 15.984375 C 90.828125 15.730469 90.972656 15.445312 91.074219 15.128906 C 91.171875 14.816406 91.230469 14.503906 91.242188 14.191406 C 91.246094 13.894531 91.203125 13.648438 91.109375 13.445312 C 91.015625 13.242188 90.890625 13.085938 90.730469 12.972656 C 90.574219 12.863281 90.390625 12.792969 90.1875 12.777344 C 89.980469 12.757812 89.773438 12.785156 89.5625 12.863281 C 89.308594 12.949219 89.089844 13.089844 88.914062 13.289062 C 88.738281 13.484375 88.589844 13.710938 88.46875 13.972656 C 88.355469 14.230469 88.261719 14.507812 88.191406 14.808594 C 88.125 15.105469 88.074219 15.402344 88.042969 15.691406 C 88.023438 15.855469 88.015625 16.015625 88.003906 16.171875 C 87.941406 16.222656 87.882812 16.277344 87.824219 16.324219 C 87.609375 16.5 87.382812 16.65625 87.148438 16.800781 C 86.910156 16.941406 86.664062 17.054688 86.410156 17.144531 C 86.15625 17.238281 85.894531 17.292969 85.625 17.308594 L 86.207031 11.089844 C 86.246094 10.957031 86.226562 10.84375 86.152344 10.742188 C 86.078125 10.644531 85.980469 10.574219 85.859375 10.535156 C 85.742188 10.496094 85.617188 10.5 85.484375 10.546875 C 85.347656 10.589844 85.238281 10.691406 85.152344 10.847656 C 85.109375 11.082031 85.0625 11.410156 85.015625 11.820312 C 84.96875 12.234375 84.925781 12.683594 84.875 13.171875 C 84.832031 13.65625 84.78125 14.160156 84.738281 14.675781 C 84.691406 15.195312 84.648438 15.679688 84.613281 16.128906 C 84.613281 16.148438 84.613281 16.167969 84.609375 16.1875 C 84.554688 16.234375 84.503906 16.277344 84.449219 16.324219 C 84.234375 16.5 84.007812 16.65625 83.773438 16.800781 C 83.535156 16.941406 83.292969 17.054688 83.035156 17.144531 C 82.78125 17.238281 82.519531 17.292969 82.253906 17.308594 L 82.828125 11.089844 C 82.867188 10.957031 82.847656 10.84375 82.773438 10.742188 C 82.699219 10.644531 82.601562 10.574219 82.484375 10.535156 C 82.367188 10.496094 82.238281 10.5 82.105469 10.546875 C 81.976562 10.589844 81.863281 10.691406 81.777344 10.847656 C 81.730469 11.082031 81.6875 11.410156 81.640625 11.820312 C 81.59375 12.234375 81.546875 12.683594 81.503906 13.171875 C 81.453125 13.65625 81.410156 14.160156 81.359375 14.675781 C 81.316406 15.195312 81.277344 15.679688 81.242188 16.128906 C 81.242188 16.140625 81.242188 16.144531 81.238281 16.15625 C 81.140625 16.199219 81.035156 16.238281 80.917969 16.273438 C 80.800781 16.308594 80.667969 16.328125 80.519531 16.335938 C 80.542969 16.222656 80.5625 16.097656 80.578125 15.960938 C 80.59375 15.824219 80.605469 15.679688 80.617188 15.53125 C 80.625 15.378906 80.628906 15.230469 80.625 15.082031 C 80.621094 14.933594 80.613281 14.792969 80.601562 14.667969 C 80.570312 14.402344 80.511719 14.144531 80.429688 13.902344 C 80.34375 13.664062 80.230469 13.464844 80.089844 13.300781 C 79.945312 13.136719 79.769531 13.027344 79.550781 12.972656 C 79.339844 12.917969 79.089844 12.9375 78.800781 13.027344 C 78.378906 12.972656 78 13.011719 77.660156 13.144531 C 77.320312 13.28125 77.023438 13.476562 76.78125 13.730469 C 76.53125 13.988281 76.328125 14.285156 76.167969 14.636719 C 76.007812 14.980469 75.902344 15.339844 75.851562 15.703125 C 75.828125 15.855469 75.820312 16.011719 75.816406 16.164062 C 75.71875 16.363281 75.613281 16.535156 75.496094 16.683594 C 75.332031 16.886719 75.160156 17.058594 74.984375 17.1875 C 74.804688 17.316406 74.632812 17.417969 74.457031 17.488281 C 74.28125 17.554688 74.125 17.605469 73.992188 17.628906 C 73.828125 17.660156 73.675781 17.664062 73.523438 17.636719 C 73.375 17.613281 73.238281 17.539062 73.113281 17.421875 C 73.015625 17.332031 72.9375 17.195312 72.882812 17 C 72.832031 16.808594 72.800781 16.585938 72.789062 16.339844 C 72.78125 16.09375 72.789062 15.835938 72.820312 15.566406 C 72.847656 15.300781 72.894531 15.046875 72.964844 14.804688 C 73.035156 14.5625 73.121094 14.347656 73.222656 14.15625 C 73.332031 13.96875 73.453125 13.832031 73.597656 13.75 C 73.679688 13.761719 73.730469 13.8125 73.75 13.894531 C 73.769531 13.976562 73.769531 14.078125 73.761719 14.195312 C 73.75 14.308594 73.738281 14.429688 73.71875 14.550781 C 73.699219 14.671875 73.691406 14.777344 73.691406 14.855469 C 73.722656 15.023438 73.785156 15.15625 73.875 15.246094 C 73.964844 15.339844 74.066406 15.398438 74.175781 15.414062 C 74.289062 15.429688 74.398438 15.402344 74.507812 15.332031 C 74.617188 15.261719 74.707031 15.15625 74.773438 15.007812 C 74.78125 15.011719 74.789062 15.011719 74.804688 15.011719 L 74.933594 13.824219 C 74.96875 13.660156 74.945312 13.519531 74.859375 13.394531 C 74.769531 13.269531 74.652344 13.195312 74.511719 13.175781 C 74.332031 12.917969 74.089844 12.777344 73.78125 12.761719 C 73.472656 12.746094 73.15625 12.847656 72.832031 13.066406 C 72.636719 13.210938 72.457031 13.410156 72.304688 13.660156 C 72.152344 13.914062 72.03125 14.195312 71.933594 14.503906 C 71.835938 14.816406 71.769531 15.140625 71.730469 15.480469 C 71.6875 15.828125 71.679688 16.160156 71.703125 16.484375 C 71.730469 16.808594 71.789062 17.117188 71.878906 17.402344 C 71.96875 17.6875 72.09375 17.929688 72.257812 18.125 C 72.394531 18.292969 72.546875 18.414062 72.722656 18.492188 C 72.894531 18.570312 73.078125 18.621094 73.265625 18.640625 C 73.457031 18.660156 73.644531 18.648438 73.832031 18.617188 C 74.015625 18.582031 74.195312 18.53125 74.363281 18.46875 C 74.578125 18.386719 74.804688 18.289062 75.035156 18.160156 C 75.265625 18.035156 75.484375 17.886719 75.695312 17.710938 C 75.808594 17.621094 75.914062 17.519531 76.019531 17.410156 C 76.066406 17.527344 76.121094 17.644531 76.179688 17.75 C 76.347656 18.03125 76.574219 18.257812 76.863281 18.433594 C 77.148438 18.605469 77.5 18.691406 77.914062 18.683594 C 78.363281 18.683594 78.773438 18.566406 79.15625 18.34375 C 79.535156 18.121094 79.847656 17.796875 80.089844 17.367188 C 80.449219 17.367188 80.808594 17.304688 81.160156 17.1875 C 81.15625 17.222656 81.152344 17.261719 81.152344 17.300781 C 81.128906 17.628906 81.113281 17.855469 81.113281 17.976562 C 81.109375 18.179688 81.09375 18.433594 81.070312 18.738281 C 81.050781 19.039062 81.035156 19.359375 81.03125 19.695312 C 81.023438 20.027344 81.035156 20.363281 81.070312 20.707031 C 81.097656 21.042969 81.164062 21.355469 81.261719 21.628906 C 81.363281 21.910156 81.503906 22.144531 81.6875 22.339844 C 81.871094 22.53125 82.109375 22.648438 82.410156 22.683594 C 82.726562 22.730469 83 22.671875 83.230469 22.515625 C 83.460938 22.359375 83.648438 22.148438 83.789062 21.875 C 83.933594 21.605469 84.035156 21.289062 84.09375 20.933594 C 84.152344 20.578125 84.171875 20.222656 84.144531 19.863281 C 84.121094 19.503906 84.054688 19.164062 83.949219 18.84375 C 83.84375 18.527344 83.695312 18.265625 83.511719 18.058594 C 83.625 18.027344 83.757812 17.96875 83.914062 17.878906 C 84.066406 17.792969 84.226562 17.695312 84.390625 17.585938 C 84.433594 17.558594 84.472656 17.527344 84.515625 17.503906 C 84.496094 17.722656 84.492188 17.878906 84.492188 17.976562 C 84.484375 18.179688 84.46875 18.433594 84.449219 18.738281 C 84.425781 19.039062 84.414062 19.359375 84.40625 19.695312 C 84.402344 20.027344 84.414062 20.363281 84.441406 20.707031 C 84.476562 21.042969 84.539062 21.355469 84.640625 21.628906 C 84.738281 21.910156 84.878906 22.144531 85.0625 22.339844 C 85.25 22.53125 85.488281 22.648438 85.785156 22.683594 C 86.101562 22.730469 86.378906 22.671875 86.605469 22.515625 C 86.835938 22.359375 87.023438 22.148438 87.167969 21.875 C 87.308594 21.605469 87.410156 21.289062 87.46875 20.933594 C 87.527344 20.578125 87.546875 20.222656 87.519531 19.863281 C 87.496094 19.503906 87.433594 19.164062 87.324219 18.84375 C 87.21875 18.527344 87.074219 18.265625 86.886719 18.058594 C 87 18.027344 87.132812 17.96875 87.285156 17.878906 C 87.441406 17.792969 87.601562 17.695312 87.769531 17.585938 C 87.851562 17.527344 87.941406 17.472656 88.023438 17.410156 C 88.054688 17.714844 88.125 17.980469 88.234375 18.210938 C 88.367188 18.484375 88.546875 18.695312 88.78125 18.84375 C 89.011719 18.996094 89.277344 19.078125 89.589844 19.09375 C 89.898438 19.109375 90.238281 19.050781 90.609375 18.917969 C 90.878906 18.820312 91.121094 18.695312 91.320312 18.542969 C 91.519531 18.394531 91.707031 18.214844 91.867188 17.996094 C 91.875 17.984375 91.882812 17.972656 91.894531 17.957031 C 91.921875 18.046875 91.953125 18.132812 91.992188 18.210938 C 92.125 18.484375 92.308594 18.695312 92.535156 18.84375 C 92.765625 18.996094 93.039062 19.078125 93.347656 19.09375 C 93.660156 19.109375 94 19.050781 94.363281 18.917969 C 94.640625 18.820312 94.875 18.695312 95.078125 18.542969 C 95.28125 18.394531 95.460938 18.214844 95.621094 17.996094 C 95.785156 17.785156 95.933594 17.53125 96.066406 17.253906 C 96.203125 16.972656 96.335938 16.652344 96.472656 16.289062 C 96.496094 16.1875 96.472656 16.101562 96.402344 16.023438 Z M 96.402344 16.023438 "/>
</g>
</svg>
